<svg width="447" height="381" viewBox="0 0 447 381" fill="none" xmlns="http://www.w3.org/2000/svg">
<g filter="url(#filter0_d)">
<line x1="21.8438" y1="-0.528737" x2="73.3938" y2="81.7531" stroke="#69657F" stroke-opacity="0.67" stroke-width="1.99133"/>
<line x1="119.836" y1="-3.5241" x2="170.487" y2="77.3215" stroke="#69657F" stroke-opacity="0.67" stroke-width="1.97387"/>
<line x1="107.394" y1="80.3793" x2="157.367" y2="160.143" stroke="#69657F" stroke-opacity="0.67" stroke-width="1.96063"/>
<line x1="203.83" y1="76.4797" x2="253.749" y2="156.157" stroke="#69657F" stroke-opacity="0.67" stroke-width="1.95956"/>
<line x1="203.847" y1="-7.53104" x2="255.847" y2="75.469" stroke="#69657F" stroke-opacity="0.67" stroke-width="2"/>
<path d="M290.424 73.7345L340.342 153.412" stroke="#69657F" stroke-opacity="0.67" stroke-width="1.95956"/>
<path d="M290.424 -9.2655L341.524 72.2982" stroke="#69657F" stroke-opacity="0.67" stroke-width="1.98262"/>
<line x1="371.834" y1="70.4774" x2="422.202" y2="150.873" stroke="#69657F" stroke-opacity="0.67" stroke-width="1.96837"/>
<line x1="371.838" y1="-12.525" x2="422.656" y2="68.5889" stroke="#69657F" stroke-opacity="0.67" stroke-width="1.97714"/>
<line x1="155.965" y1="160.442" x2="253.848" y2="157.001" stroke="#69657F" stroke-opacity="0.67" stroke-width="2"/>
<line x1="252.965" y1="157.001" x2="350.848" y2="153.559" stroke="#69657F" stroke-opacity="0.67" stroke-width="2"/>
<line x1="348.965" y1="153.641" x2="446.848" y2="150.199" stroke="#69657F" stroke-opacity="0.67" stroke-width="2"/>
<line x1="72.9649" y1="81.4424" x2="170.848" y2="78.0005" stroke="#69657F" stroke-opacity="0.67" stroke-width="2"/>
<line x1="169.965" y1="78.0005" x2="267.848" y2="74.5586" stroke="#69657F" stroke-opacity="0.67" stroke-width="2"/>
<line x1="265.965" y1="74.6405" x2="363.848" y2="71.1986" stroke="#69657F" stroke-opacity="0.67" stroke-width="2"/>
<line x1="197.833" y1="158.478" x2="248.033" y2="238.606" stroke="#69657F" stroke-opacity="0.67" stroke-width="1.96509"/>
<line x1="294.83" y1="155.48" x2="344.749" y2="235.157" stroke="#69657F" stroke-opacity="0.67" stroke-width="1.95956"/>
<path d="M381.424 152.734L431.342 232.412" stroke="#69657F" stroke-opacity="0.67" stroke-width="1.95956"/>
<line x1="294.847" y1="237.469" x2="345.834" y2="318.851" stroke="#69657F" stroke-opacity="0.67" stroke-width="2"/>
<line x1="391.847" y1="234.469" x2="441.766" y2="314.147" stroke="#69657F" stroke-opacity="0.67" stroke-width="2"/>
<line x1="246.965" y1="239.244" x2="344.848" y2="235.802" stroke="#69657F" stroke-opacity="0.67" stroke-width="2"/>
<line x1="343.965" y1="235.802" x2="441.848" y2="232.361" stroke="#69657F" stroke-opacity="0.67" stroke-width="2"/>
<line x1="439.965" y1="232.442" x2="537.848" y2="229.001" stroke="#69657F" stroke-opacity="0.67" stroke-width="2"/>
<line x1="356.965" y1="71.4424" x2="454.848" y2="68.0005" stroke="#69657F" stroke-opacity="0.67" stroke-width="2"/>
<line x1="344.965" y1="318.244" x2="442.848" y2="314.802" stroke="#69657F" stroke-opacity="0.67" stroke-width="2"/>
<line x1="441.965" y1="314.802" x2="539.848" y2="311.36" stroke="#69657F" stroke-opacity="0.67" stroke-width="2"/>
<path d="M324.346 219.769C326.275 222.993 324.091 227.114 320.34 227.327L255.582 231.018C253.724 231.123 251.962 230.189 251.006 228.593L217.707 172.929C215.778 169.705 217.962 165.584 221.714 165.371L286.472 161.681C288.329 161.575 290.092 162.509 291.047 164.106L324.346 219.769Z" fill="#907EFF"/>
<path d="M323.715 138.441C325.824 141.555 323.914 145.792 320.205 146.23L261.453 153.172C259.603 153.39 257.782 152.553 256.731 151L223.334 101.688C221.225 98.5746 223.135 94.3376 226.845 93.8994L285.597 86.9577C287.446 86.7391 289.268 87.5766 290.319 89.129L323.715 138.441Z" fill="#907EFF"/>
<path d="M403.866 129.028C406.344 131.748 403.989 136.211 399.751 136.824L351.563 143.804C349.787 144.061 348.096 143.531 347.058 142.391L318.88 111.459C316.402 108.739 318.757 104.277 322.995 103.663L371.183 96.684C372.959 96.4268 374.65 96.9571 375.688 98.097L403.866 129.028Z" fill="#907EFF"/>
<path d="M403.866 47.0284C406.344 49.7484 403.989 54.2105 399.751 54.8243L351.563 61.8037C349.787 62.0609 348.096 61.5306 347.058 60.3907L318.88 29.4592C316.402 26.7392 318.757 22.2771 322.995 21.6634L371.183 14.684C372.959 14.4268 374.65 14.9571 375.688 16.097L403.866 47.0284Z" fill="#907EFF"/>
<path d="M240.552 60.4976C242.597 63.6486 240.547 67.8454 236.796 68.1895L178.743 73.5134C176.891 73.6832 175.099 72.8156 174.09 71.2603L142.448 22.5021C140.403 19.3511 142.453 15.1543 146.204 14.8102L204.257 9.48632C206.109 9.31649 207.901 10.1841 208.91 11.7394L240.552 60.4976Z" fill="#907EFF"/>
<path d="M235.453 142.144C237.382 145.368 235.198 149.489 231.447 149.702L166.689 153.392C164.831 153.498 163.069 152.564 162.114 150.967L128.814 95.3043C126.885 92.0797 129.069 87.9593 132.821 87.7455L197.579 84.0554C199.436 83.9496 201.199 84.8838 202.154 86.4804L235.453 142.144Z" fill="#907EFF"/>
<path d="M150.346 64.7687C152.275 67.9933 150.091 72.1137 146.34 72.3275L81.5818 76.0176C79.7243 76.1234 77.9616 75.1892 77.0065 73.5926L43.7073 17.9294C41.7782 14.7048 43.9622 10.5844 47.7136 10.3706L112.472 6.68053C114.329 6.57469 116.092 7.50894 117.047 9.10555L150.346 64.7687Z" fill="#907EFF"/>
<path d="M325.996 56.4412C328.105 59.5545 326.195 63.7915 322.486 64.2298L263.734 71.1715C261.884 71.39 260.063 70.5525 259.011 69.0002L225.615 19.6879C223.506 16.5746 225.416 12.3376 229.125 11.8994L287.877 4.95765C289.727 4.73913 291.548 5.57663 292.6 7.12897L325.996 56.4412Z" fill="#907EFF"/>
<path d="M420.346 298.769C422.275 301.993 420.091 306.114 416.34 306.328L351.582 310.018C349.724 310.123 347.962 309.189 347.006 307.593L313.707 251.929C311.778 248.705 313.962 244.584 317.714 244.371L382.472 240.681C384.329 240.575 386.092 241.509 387.047 243.106L420.346 298.769Z" fill="#907EFF"/>
<path d="M411.434 212.901C413.911 215.621 411.556 220.083 407.319 220.697L359.13 227.677C357.354 227.934 355.664 227.403 354.625 226.264L326.447 195.332C323.969 192.612 326.325 188.15 330.562 187.536L378.75 180.557C380.526 180.3 382.217 180.83 383.256 181.97L411.434 212.901Z" fill="#907EFF"/>
</g>
<defs>
<filter id="filter0_d" x="17" y="-21.0735" width="639.883" height="366.845" filterUnits="userSpaceOnUse" color-interpolation-filters="sRGB">
<feFlood flood-opacity="0" result="BackgroundImageFix"/>
<feColorMatrix in="SourceAlpha" type="matrix" values="0 0 0 0 0 0 0 0 0 0 0 0 0 0 0 0 0 0 127 0"/>
<feOffset dy="4"/>
<feGaussianBlur stdDeviation="2"/>
<feColorMatrix type="matrix" values="0 0 0 0 0 0 0 0 0 0 0 0 0 0 0 0 0 0 0.25 0"/>
<feBlend mode="normal" in2="BackgroundImageFix" result="effect1_dropShadow"/>
<feBlend mode="normal" in="SourceGraphic" in2="effect1_dropShadow" result="shape"/>
</filter>
</defs>
</svg>
