<svg width="80" height="63" viewBox="0 0 80 63" fill="none" xmlns="http://www.w3.org/2000/svg">
<path d="M0.800556 0.0250779H2.11347V0.137155C2.04942 0.2012 2.00673 0.270582 1.98538 0.3453C1.9747 0.420019 1.96937 0.548107 1.96937 0.729566V4.28403H5.87608V0.0250779H7.18899V0.137155C7.12494 0.2012 7.08225 0.270582 7.0609 0.3453C7.05023 0.420019 7.04489 0.548107 7.04489 0.729566V10H5.86007V5.2447H1.96937V10H0.800556V0.0250779ZM1.2969 26.0553H3.26627V17.9697H1.40898V17.0251H6.35641V17.9697H4.38704V26.0714H6.45248V27H1.2969V26.0553ZM0.8646 33.0251H3.18621C4.00811 33.0251 4.65923 33.1372 5.13957 33.3613C5.6199 33.5748 6.03619 33.9164 6.38843 34.386C7.03955 35.2613 7.36511 36.4888 7.36511 38.0686C7.30107 39.6804 6.92747 40.9132 6.24433 41.7671C5.56119 42.6104 4.47777 43.0267 2.99408 43.016H0.8646V33.0251ZM2.94604 42.1354C5.1449 42.1354 6.24433 40.8011 6.24433 38.1326C6.23366 36.777 5.98282 35.747 5.49181 35.0425C5.0008 34.3273 4.21092 33.9697 3.12217 33.9697H1.92133V42.1354H2.94604ZM0.944656 50.0091H7.0609V51.0018H2.00139V54.284H6.18029V55.3087H2.00139V59.0073H7.01287V60H0.944656V50.0091Z" fill="#7D6DDE"/>
<path d="M11.544 10.1761C10.7755 10.1761 10.1617 9.89326 9.70273 9.32753C9.24375 8.75113 9.01959 7.89721 9.03027 6.76576L9.04628 2.68292H10.1671V6.76576C10.1671 7.64103 10.3165 8.27614 10.6154 8.67108C10.9249 9.05534 11.3305 9.24748 11.8322 9.24748C12.3873 9.24748 12.8516 9.034 13.2252 8.60703C13.6094 8.1694 13.8016 7.53963 13.8016 6.71772V2.68292H14.9224V8.86321C14.9224 9.11939 14.9277 9.33287 14.9384 9.50366C14.9597 9.66377 15.0077 9.82921 15.0825 10H13.9777C13.903 9.83989 13.8549 9.67444 13.8336 9.50366C13.8229 9.33287 13.8176 9.12473 13.8176 8.87922C13.5828 9.28484 13.2625 9.60506 12.8569 9.83989C12.462 10.064 12.0243 10.1761 11.544 10.1761ZM16.6195 2.68292H17.6763V3.40342C17.8471 3.13657 18.0659 2.92309 18.3327 2.76298C18.5996 2.59219 18.8771 2.5068 19.1653 2.5068C19.4855 2.5068 19.763 2.6082 19.9979 2.81101C20.2434 3.01382 20.3982 3.27 20.4622 3.57954C20.601 3.25932 20.8198 3.00314 21.1187 2.81101C21.4175 2.6082 21.7484 2.5068 22.1113 2.5068C22.5917 2.5068 22.9493 2.68292 23.1841 3.03517C23.4296 3.37674 23.5417 3.82505 23.5203 4.3801V10H22.4636V4.8124C22.4636 4.20398 22.4049 3.80904 22.2875 3.62758C22.1701 3.44612 21.9993 3.35539 21.7751 3.35539C21.583 3.35539 21.3962 3.44612 21.2147 3.62758C21.0333 3.80904 20.8838 4.04387 20.7664 4.33207C20.6597 4.60959 20.6063 4.88712 20.6063 5.16464V10H19.5336V4.90847C19.5336 4.31072 19.4748 3.91044 19.3574 3.70763C19.2507 3.49415 19.0425 3.38741 18.733 3.38741C18.5729 3.38741 18.4074 3.46213 18.2367 3.61157C18.0765 3.75033 17.9431 3.95314 17.8364 4.21999C17.7296 4.47617 17.6763 4.77504 17.6763 5.11661V10H16.6195V2.68292ZM27.9234 2.52281C28.9694 2.52281 29.7647 2.795 30.309 3.33938C30.8641 3.88376 31.1416 4.80706 31.1416 6.1093V10H29.8927V8.87922C29.4444 9.74382 28.6119 10.1761 27.395 10.1761C26.5838 10.1761 25.9487 9.99466 25.4897 9.63174C25.0307 9.25815 24.8012 8.76714 24.8012 8.15872C24.8012 7.64637 24.9667 7.19806 25.2976 6.81379C25.6285 6.42952 26.0714 6.13599 26.6265 5.93318C27.1922 5.7197 27.8113 5.61296 28.4838 5.61296C29.0922 5.61296 29.6419 5.64498 30.1329 5.70902C30.0689 4.88712 29.85 4.31072 29.4765 3.97982C29.1135 3.63825 28.5692 3.46747 27.8433 3.46747C27.4804 3.46747 27.1282 3.53685 26.7866 3.67561C26.4557 3.81437 26.1515 4.01718 25.874 4.28403L25.3136 3.54752C25.9967 2.86438 26.8666 2.52281 27.9234 2.52281ZM27.5071 9.29551C28.297 9.29551 28.9214 9.06602 29.3804 8.60703C29.8394 8.13737 30.0902 7.46491 30.1329 6.58963C29.6526 6.51491 29.1349 6.47756 28.5798 6.47756C27.7686 6.47756 27.1282 6.61098 26.6585 6.87783C26.1888 7.14469 25.954 7.5503 25.954 8.09468C25.954 8.89523 26.4717 9.29551 27.5071 9.29551ZM33.175 2.68292H34.2958V3.97982C34.584 3.53151 34.9469 3.17393 35.3846 2.90708C35.8222 2.64023 36.2865 2.5068 36.7775 2.5068C37.4286 2.5068 37.9463 2.75764 38.3306 3.25932C38.7255 3.75033 38.923 4.51886 38.923 5.56492V10H37.8022V5.59694C37.8022 4.87111 37.6795 4.34274 37.434 4.01184C37.1885 3.68095 36.8629 3.5155 36.4573 3.5155C36.1264 3.5155 35.7902 3.61157 35.4486 3.8037C35.1177 3.99583 34.8402 4.26802 34.616 4.62027C34.4025 4.96184 34.2958 5.35144 34.2958 5.78908V10H33.175V2.68292ZM44.3828 10.1601C43.294 10.1601 42.4241 9.82921 41.773 9.16742C41.1325 8.50563 40.8123 7.57165 40.8123 6.36548C40.8123 5.56492 40.9618 4.87644 41.2606 4.30004C41.5595 3.71297 41.9598 3.27 42.4615 2.97112C42.9738 2.66157 43.5449 2.5068 44.1747 2.5068C45.0606 2.5068 45.7758 2.80034 46.3201 3.38741C46.8752 3.97449 47.1527 4.83909 47.1527 5.98121C47.1527 6.09863 47.142 6.27475 47.1207 6.50958H41.9171C41.9598 7.4062 42.2106 8.084 42.6696 8.54299C43.1286 9.00197 43.7103 9.23147 44.4148 9.23147C45.1834 9.23147 45.8131 8.95928 46.3041 8.4149L46.9446 9.03933C46.3255 9.78652 45.4716 10.1601 44.3828 10.1601ZM45.9839 5.61296C45.9839 4.92981 45.8078 4.39077 45.4555 3.99583C45.114 3.59022 44.6603 3.38741 44.0946 3.38741C43.5609 3.38741 43.0966 3.57421 42.7016 3.9478C42.3067 4.32139 42.0612 4.87644 41.9651 5.61296H45.9839ZM9.15836 19.6829H10.2791V20.9798C10.5673 20.5315 10.9303 20.1739 11.3679 19.9071C11.8055 19.6402 12.2698 19.5068 12.7609 19.5068C13.412 19.5068 13.9297 19.7576 14.3139 20.2593C14.7089 20.7503 14.9063 21.5189 14.9063 22.5649V27H13.7856V22.5969C13.7856 21.8711 13.6628 21.3427 13.4173 21.0118C13.1718 20.6809 12.8462 20.5155 12.4406 20.5155C12.1097 20.5155 11.7735 20.6116 11.4319 20.8037C11.101 20.9958 10.8235 21.268 10.5994 21.6203C10.3859 21.9618 10.2791 22.3514 10.2791 22.7891V27H9.15836V19.6829ZM23.12 26.3275C22.4156 26.8506 21.6417 27.1121 20.7984 27.1121C19.9872 27.1121 19.4108 26.8666 19.0692 26.3756C18.7383 25.8846 18.5729 25.084 18.5729 23.9739C18.5729 23.7924 18.5836 23.4776 18.6049 23.0292L18.749 20.6276H17.1319V19.6829H18.8131L18.9251 17.7296L20.206 17.5214L20.3661 17.5054L20.3821 17.6015C20.3074 17.7082 20.2487 17.7989 20.206 17.8737C20.174 17.9484 20.1527 18.0658 20.142 18.2259L19.9659 19.6829H22.3995V20.6276H19.9018L19.7577 23.1093C19.7364 23.5363 19.7257 23.8191 19.7257 23.9579C19.7257 24.8118 19.8218 25.3936 20.0139 25.7031C20.2167 26.002 20.5369 26.1514 20.9746 26.1514C21.2948 26.1514 21.5883 26.0927 21.8552 25.9753C22.122 25.8579 22.4262 25.6711 22.7678 25.4149L23.12 26.3275ZM28.3717 27.1601C27.2829 27.1601 26.413 26.8292 25.7619 26.1674C25.1214 25.5056 24.8012 24.5716 24.8012 23.3655C24.8012 22.5649 24.9506 21.8764 25.2495 21.3C25.5484 20.713 25.9487 20.27 26.4504 19.9711C26.9627 19.6616 27.5338 19.5068 28.1635 19.5068C29.0495 19.5068 29.7647 19.8003 30.309 20.3874C30.8641 20.9745 31.1416 21.8391 31.1416 22.9812C31.1416 23.0986 31.1309 23.2747 31.1096 23.5096H25.906C25.9487 24.4062 26.1995 25.084 26.6585 25.543C27.1175 26.002 27.6992 26.2315 28.4037 26.2315C29.1722 26.2315 29.802 25.9593 30.293 25.4149L30.9335 26.0393C30.3144 26.7865 29.4604 27.1601 28.3717 27.1601ZM29.9728 22.613C29.9728 21.9298 29.7967 21.3908 29.4444 20.9958C29.1029 20.5902 28.6492 20.3874 28.0835 20.3874C27.5498 20.3874 27.0855 20.5742 26.6905 20.9478C26.2956 21.3214 26.0501 21.8764 25.954 22.613H29.9728ZM37.418 19.5068C38.1972 19.5068 38.843 19.7737 39.3553 20.3074L38.843 21.204L38.7789 21.3481L38.6668 21.284C38.6348 21.1666 38.5975 21.0759 38.5548 21.0118C38.5121 20.9371 38.4213 20.8571 38.2826 20.7717C38.005 20.5902 37.6902 20.4995 37.3379 20.4995C36.9536 20.4995 36.5907 20.5956 36.2492 20.7877C35.9076 20.9798 35.6301 21.2734 35.4166 21.6683C35.2031 22.0526 35.0964 22.5382 35.0964 23.1253V27.016H33.9275V19.6829H35.1284L35.0964 21.0279C35.2992 20.5475 35.6087 20.1739 36.025 19.9071C36.452 19.6402 36.9163 19.5068 37.418 19.5068ZM42.6216 20.5956H41.0365V19.6829H42.6216V19.0745C42.6216 18.1352 42.8617 17.4307 43.3421 16.961C43.8331 16.4914 44.4895 16.2565 45.3114 16.2565C45.7811 16.2565 46.2134 16.3419 46.6083 16.5127C47.014 16.6835 47.3449 16.9343 47.601 17.2652L46.9926 18.1138L46.8965 18.2419L46.8005 18.1779C46.8005 18.1565 46.7898 18.1138 46.7685 18.0498C46.7578 17.9751 46.7311 17.9004 46.6884 17.8256C46.6457 17.7509 46.5817 17.6762 46.4963 17.6015C46.3362 17.452 46.1707 17.3453 45.9999 17.2813C45.8291 17.2172 45.6103 17.1852 45.3435 17.1852C44.8418 17.1852 44.4468 17.3346 44.1586 17.6335C43.8704 17.9324 43.7263 18.4127 43.7263 19.0745V19.6829H46.128V20.5956H43.7263V27H42.6216V20.5956ZM51.94 19.5228C52.9861 19.5228 53.7813 19.795 54.3257 20.3394C54.8808 20.8838 55.1583 21.8071 55.1583 23.1093V27H53.9094V25.8792C53.4611 26.7438 52.6285 27.1761 51.4117 27.1761C50.6004 27.1761 49.9653 26.9947 49.5064 26.6317C49.0474 26.2582 48.8179 25.7671 48.8179 25.1587C48.8179 24.6464 48.9833 24.1981 49.3142 23.8138C49.6451 23.4295 50.0881 23.136 50.6431 22.9332C51.2089 22.7197 51.828 22.613 52.5004 22.613C53.1089 22.613 53.6586 22.645 54.1496 22.709C54.0855 21.8871 53.8667 21.3107 53.4931 20.9798C53.1302 20.6383 52.5858 20.4675 51.86 20.4675C51.4971 20.4675 51.1448 20.5368 50.8033 20.6756C50.4724 20.8144 50.1681 21.0172 49.8906 21.284L49.3302 20.5475C50.0134 19.8644 50.8833 19.5228 51.94 19.5228ZM51.5238 26.2955C52.3136 26.2955 52.9381 26.066 53.3971 25.607C53.856 25.1374 54.1069 24.4649 54.1496 23.5896C53.6692 23.5149 53.1516 23.4776 52.5965 23.4776C51.7853 23.4776 51.1448 23.611 50.6752 23.8778C50.2055 24.1447 49.9707 24.5503 49.9707 25.0947C49.9707 25.8952 50.4884 26.2955 51.5238 26.2955ZM60.6021 27.1761C59.8976 27.1761 59.2678 27.0107 58.7127 26.6798C58.1577 26.3489 57.7201 25.8952 57.3998 25.3188C57.0903 24.7318 56.9355 24.0753 56.9355 23.3495C56.9355 22.6236 57.0903 21.9725 57.3998 21.3961C57.7201 20.8197 58.1577 20.3661 58.7127 20.0352C59.2678 19.7043 59.8922 19.5388 60.586 19.5388C61.1731 19.5388 61.7068 19.6616 62.1872 19.9071C62.6675 20.1419 63.0571 20.4728 63.356 20.8998L62.6355 21.6043L62.5234 21.7163L62.4433 21.6363C62.4433 21.5402 62.422 21.4548 62.3793 21.3801C62.3473 21.2947 62.2672 21.1986 62.1391 21.0919C61.915 20.8891 61.6695 20.745 61.4026 20.6596C61.1358 20.5635 60.8209 20.5155 60.458 20.5155C60.0417 20.5155 59.6521 20.6329 59.2891 20.8677C58.9369 21.0919 58.654 21.4121 58.4406 21.8284C58.2271 22.2447 58.1203 22.725 58.1203 23.2694C58.1203 23.8138 58.2271 24.3048 58.4406 24.7424C58.6647 25.1801 58.9689 25.5216 59.3532 25.7671C59.7481 26.0126 60.1858 26.1354 60.6661 26.1354C61.4026 26.1354 62.0377 25.8365 62.5714 25.2388L63.2439 26.0233C62.5287 26.7919 61.6481 27.1761 60.6021 27.1761ZM68.3995 27.1601C67.3107 27.1601 66.4408 26.8292 65.7897 26.1674C65.1492 25.5056 64.829 24.5716 64.829 23.3655C64.829 22.5649 64.9784 21.8764 65.2773 21.3C65.5762 20.713 65.9764 20.27 66.4781 19.9711C66.9905 19.6616 67.5615 19.5068 68.1913 19.5068C69.0773 19.5068 69.7924 19.8003 70.3368 20.3874C70.8919 20.9745 71.1694 21.8391 71.1694 22.9812C71.1694 23.0986 71.1587 23.2747 71.1374 23.5096H65.9338C65.9764 24.4062 66.2273 25.084 66.6863 25.543C67.1453 26.002 67.727 26.2315 68.4315 26.2315C69.2 26.2315 69.8298 25.9593 70.3208 25.4149L70.9612 26.0393C70.3421 26.7865 69.4882 27.1601 68.3995 27.1601ZM70.0006 22.613C70.0006 21.9298 69.8245 21.3908 69.4722 20.9958C69.1306 20.5902 68.677 20.3874 68.1113 20.3874C67.5776 20.3874 67.1132 20.5742 66.7183 20.9478C66.3234 21.3214 66.0779 21.8764 65.9818 22.613H70.0006ZM12.3606 43.1601C11.2718 43.1601 10.4019 42.8292 9.75077 42.1674C9.11032 41.5056 8.7901 40.5716 8.7901 39.3655C8.7901 38.5649 8.93954 37.8764 9.23841 37.3C9.53728 36.713 9.93756 36.27 10.4392 35.9711C10.9516 35.6616 11.5227 35.5068 12.1524 35.5068C13.0384 35.5068 13.7535 35.8003 14.2979 36.3874C14.853 36.9745 15.1305 37.8391 15.1305 38.9812C15.1305 39.0986 15.1198 39.2747 15.0985 39.5096H9.89487C9.93756 40.4062 10.1884 41.084 10.6474 41.543C11.1064 42.002 11.6881 42.2315 12.3926 42.2315C13.1611 42.2315 13.7909 41.9593 14.2819 41.4149L14.9224 42.0393C14.3033 42.7865 13.4493 43.1601 12.3606 43.1601ZM13.9617 38.613C13.9617 37.9298 13.7856 37.3908 13.4333 36.9958C13.0918 36.5902 12.6381 36.3874 12.0724 36.3874C11.5387 36.3874 11.0744 36.5742 10.6794 36.9478C10.2845 37.3214 10.039 37.8764 9.9429 38.613H13.9617ZM20.0299 43.1601C18.7917 43.1601 17.7563 42.7758 16.9237 42.0073L17.5642 40.9186L17.6603 40.7745L17.7563 40.8385C17.7563 40.8598 17.7617 40.9079 17.7723 40.9826C17.7937 41.0573 17.8257 41.132 17.8684 41.2068C17.9111 41.2815 17.9698 41.3562 18.0445 41.4309C18.29 41.6764 18.5676 41.8685 18.8771 42.0073C19.1973 42.1354 19.5923 42.1994 20.0619 42.1994C20.6383 42.1994 21.092 42.098 21.4229 41.8952C21.7538 41.6818 21.9192 41.3936 21.9192 41.0306C21.9192 40.7211 21.7858 40.4649 21.5189 40.2621C21.2521 40.0593 20.7717 39.8458 20.0779 39.6217C18.242 39.0986 17.324 38.3408 17.324 37.3481C17.324 36.7824 17.5535 36.334 18.0125 36.0031C18.4822 35.6722 19.1493 35.5068 20.0139 35.5068C20.6757 35.5068 21.2307 35.6029 21.679 35.795C22.138 35.9765 22.5543 36.2647 22.9279 36.6596L22.2715 37.4602L22.1594 37.5882L22.0793 37.5082C22.0686 37.3908 22.042 37.2947 21.9993 37.22C21.9672 37.1453 21.8925 37.0599 21.7751 36.9638C21.5296 36.7717 21.2521 36.6276 20.9425 36.5315C20.6437 36.4248 20.3448 36.3714 20.0459 36.3714C19.5869 36.3714 19.208 36.4515 18.9091 36.6116C18.6209 36.7717 18.4768 36.9958 18.4768 37.284C18.4768 37.5509 18.6263 37.7964 18.9251 38.0205C19.224 38.2447 19.763 38.4689 20.5423 38.693C21.4602 38.9705 22.106 39.2747 22.4796 39.6056C22.8639 39.9259 23.056 40.3475 23.056 40.8705C23.056 41.5323 22.7945 42.082 22.2715 42.5197C21.7591 42.9466 21.0119 43.1601 20.0299 43.1601ZM25.6178 42.0714H27.4911V36.6116H25.7138V35.6829H28.6439V42.0714H30.3571V43H25.6178V42.0714ZM28.0034 34.1459C27.7793 34.1459 27.5871 34.0658 27.427 33.9057C27.2669 33.7456 27.1869 33.5534 27.1869 33.3293C27.1869 33.0945 27.2616 32.897 27.411 32.7369C27.5711 32.5768 27.7686 32.4967 28.0034 32.4967C28.2276 32.4967 28.4197 32.5821 28.5798 32.7529C28.7506 32.913 28.836 33.1051 28.836 33.3293C28.836 33.5534 28.7506 33.7456 28.5798 33.9057C28.4197 34.0658 28.2276 34.1459 28.0034 34.1459ZM39.6275 36.4354C39.5314 36.4248 39.3927 36.4194 39.2112 36.4194C38.6989 36.4194 38.2719 36.5315 37.9303 36.7557C38.1118 37.1186 38.2025 37.5189 38.2025 37.9565C38.2025 38.4368 38.0958 38.8745 37.8823 39.2694C37.6795 39.6537 37.3806 39.9579 36.9857 40.182C36.6014 40.4062 36.1531 40.5183 35.6407 40.5183C35.2351 40.5183 34.8562 40.4436 34.5039 40.2941C34.3118 40.529 34.2157 40.7531 34.2157 40.9666C34.2157 41.2228 34.3759 41.4096 34.6961 41.527C35.027 41.6337 35.614 41.6871 36.4573 41.6871C37.4927 41.6871 38.1972 41.8472 38.5708 42.1674C38.955 42.477 39.1472 42.936 39.1472 43.5444C39.1472 44.1741 38.891 44.6972 38.3786 45.1135C37.8663 45.5404 37.0657 45.7539 35.977 45.7539C34.9309 45.7539 34.109 45.5938 33.5113 45.2736C32.9242 44.9534 32.6306 44.4837 32.6306 43.8646C32.6306 43.4803 32.7374 43.1494 32.9509 42.8719C33.1643 42.5944 33.4365 42.3756 33.7674 42.2155C33.4152 41.9806 33.2391 41.6551 33.2391 41.2388C33.2391 40.8118 33.4579 40.3635 33.8955 39.8938C33.6287 39.659 33.4259 39.3762 33.2871 39.0453C33.1483 38.7144 33.079 38.3514 33.079 37.9565C33.079 37.4868 33.1804 37.0599 33.3832 36.6756C33.5966 36.2807 33.8955 35.9711 34.2798 35.747C34.6747 35.5228 35.1284 35.4107 35.6407 35.4107C36.4199 35.4107 37.0444 35.6616 37.514 36.1633C37.7702 35.9284 38.0317 35.7576 38.2986 35.6509C38.5761 35.5335 38.8803 35.4748 39.2112 35.4748L39.4834 35.4908L39.6275 36.4354ZM35.6407 39.5576C36.0997 39.5576 36.4786 39.4028 36.7775 39.0933C37.0871 38.7837 37.2418 38.4048 37.2418 37.9565C37.2418 37.5082 37.0871 37.1293 36.7775 36.8197C36.4786 36.5102 36.0997 36.3554 35.6407 36.3554C35.1817 36.3554 34.7975 36.5102 34.4879 36.8197C34.1891 37.1293 34.0396 37.5082 34.0396 37.9565C34.0396 38.4048 34.1891 38.7837 34.4879 39.0933C34.7975 39.4028 35.1817 39.5576 35.6407 39.5576ZM38.0904 43.7205C38.0904 43.4643 38.0424 43.2615 37.9463 43.1121C37.8609 42.9733 37.6848 42.8719 37.418 42.8079C37.1511 42.7331 36.7508 42.6958 36.2171 42.6958C35.4486 42.6958 34.8348 42.6264 34.3759 42.4876C34.1197 42.6584 33.9382 42.8346 33.8315 43.016C33.7354 43.1975 33.6874 43.4376 33.6874 43.7365C33.6874 44.0994 33.8902 44.3823 34.2958 44.5851C34.7014 44.7879 35.2671 44.8893 35.993 44.8893C36.6975 44.8893 37.2205 44.7826 37.5621 44.5691C37.9143 44.3663 38.0904 44.0834 38.0904 43.7205ZM41.1806 35.6829H42.3014V36.9798C42.5896 36.5315 42.9525 36.1739 43.3901 35.9071C43.8277 35.6402 44.2921 35.5068 44.7831 35.5068C45.4342 35.5068 45.9519 35.7576 46.3362 36.2593C46.7311 36.7503 46.9286 37.5189 46.9286 38.5649V43H45.8078V38.5969C45.8078 37.8711 45.685 37.3427 45.4395 37.0118C45.194 36.6809 44.8685 36.5155 44.4629 36.5155C44.132 36.5155 43.7957 36.6116 43.4542 36.8037C43.1233 36.9958 42.8457 37.268 42.6216 37.6203C42.4081 37.9618 42.3014 38.3514 42.3014 38.7891V43H41.1806V35.6829ZM9.15836 52.6829H10.2791V53.9798C10.5673 53.5315 10.9303 53.1739 11.3679 52.9071C11.8055 52.6402 12.2698 52.5068 12.7609 52.5068C13.412 52.5068 13.9297 52.7576 14.3139 53.2593C14.7089 53.7503 14.9063 54.5189 14.9063 55.5649V60H13.7856V55.5969C13.7856 54.8711 13.6628 54.3427 13.4173 54.0118C13.1718 53.6809 12.8462 53.5155 12.4406 53.5155C12.1097 53.5155 11.7735 53.6116 11.4319 53.8037C11.101 53.9958 10.8235 54.268 10.5994 54.6203C10.3859 54.9618 10.2791 55.3514 10.2791 55.7891V60H9.15836V52.6829ZM23.12 59.3275C22.4156 59.8506 21.6417 60.1121 20.7984 60.1121C19.9872 60.1121 19.4108 59.8666 19.0692 59.3756C18.7383 58.8846 18.5729 58.084 18.5729 56.9739C18.5729 56.7924 18.5836 56.4776 18.6049 56.0292L18.749 53.6276H17.1319V52.6829H18.8131L18.9251 50.7296L20.206 50.5214L20.3661 50.5054L20.3821 50.6015C20.3074 50.7082 20.2487 50.7989 20.206 50.8737C20.174 50.9484 20.1527 51.0658 20.142 51.2259L19.9659 52.6829H22.3995V53.6276H19.9018L19.7577 56.1093C19.7364 56.5363 19.7257 56.8191 19.7257 56.9579C19.7257 57.8118 19.8218 58.3936 20.0139 58.7031C20.2167 59.002 20.5369 59.1514 20.9746 59.1514C21.2948 59.1514 21.5883 59.0927 21.8552 58.9753C22.122 58.8579 22.4262 58.6711 22.7678 58.4149L23.12 59.3275ZM28.3717 60.1601C27.2829 60.1601 26.413 59.8292 25.7619 59.1674C25.1214 58.5056 24.8012 57.5716 24.8012 56.3655C24.8012 55.5649 24.9506 54.8764 25.2495 54.3C25.5484 53.713 25.9487 53.27 26.4504 52.9711C26.9627 52.6616 27.5338 52.5068 28.1635 52.5068C29.0495 52.5068 29.7647 52.8003 30.309 53.3874C30.8641 53.9745 31.1416 54.8391 31.1416 55.9812C31.1416 56.0986 31.1309 56.2747 31.1096 56.5096H25.906C25.9487 57.4062 26.1995 58.084 26.6585 58.543C27.1175 59.002 27.6992 59.2315 28.4037 59.2315C29.1722 59.2315 29.802 58.9593 30.293 58.4149L30.9335 59.0393C30.3144 59.7865 29.4604 60.1601 28.3717 60.1601ZM29.9728 55.613C29.9728 54.9298 29.7967 54.3908 29.4444 53.9958C29.1029 53.5902 28.6492 53.3874 28.0835 53.3874C27.5498 53.3874 27.0855 53.5742 26.6905 53.9478C26.2956 54.3214 26.0501 54.8764 25.954 55.613H29.9728ZM37.418 52.5068C38.1972 52.5068 38.843 52.7737 39.3553 53.3074L38.843 54.204L38.7789 54.3481L38.6668 54.284C38.6348 54.1666 38.5975 54.0759 38.5548 54.0118C38.5121 53.9371 38.4213 53.8571 38.2826 53.7717C38.005 53.5902 37.6902 53.4995 37.3379 53.4995C36.9536 53.4995 36.5907 53.5956 36.2492 53.7877C35.9076 53.9798 35.6301 54.2734 35.4166 54.6683C35.2031 55.0526 35.0964 55.5382 35.0964 56.1253V60.016H33.9275V52.6829H35.1284L35.0964 54.0279C35.2992 53.5475 35.6087 53.1739 36.025 52.9071C36.452 52.6402 36.9163 52.5068 37.418 52.5068ZM40.9884 52.6829H42.1573V54.1239C42.3174 53.5902 42.5949 53.1899 42.9898 52.9231C43.3848 52.6562 43.8491 52.5228 44.3828 52.5228C44.9378 52.5228 45.4449 52.6669 45.9039 52.9551C46.3735 53.2326 46.7471 53.6543 47.0246 54.22C47.3022 54.7857 47.4409 55.4742 47.4409 56.2854C47.4409 57.1073 47.2968 57.8172 47.0086 58.4149C46.7204 59.002 46.3362 59.4449 45.8558 59.7438C45.3862 60.0427 44.8845 60.1921 44.3508 60.1921C43.9131 60.1921 43.5022 60.0907 43.1179 59.8879C42.7337 59.6851 42.4188 59.4023 42.1733 59.0393V62.6739H40.9884V52.6829ZM44.1586 59.1674C44.7457 59.1674 45.2367 58.9486 45.6317 58.511C46.0373 58.0627 46.2401 57.3368 46.2401 56.3335C46.2401 55.4262 46.064 54.7323 45.7117 54.252C45.3595 53.761 44.8578 53.5155 44.2067 53.5155C43.5983 53.5155 43.1019 53.7717 42.7176 54.284C42.344 54.7857 42.1573 55.5542 42.1573 56.5896C42.1786 57.4329 42.3654 58.0733 42.7176 58.511C43.0699 58.9486 43.5502 59.1674 44.1586 59.1674ZM53.4291 52.5068C54.2083 52.5068 54.8541 52.7737 55.3664 53.3074L54.8541 54.204L54.79 54.3481L54.6779 54.284C54.6459 54.1666 54.6086 54.0759 54.5659 54.0118C54.5232 53.9371 54.4324 53.8571 54.2937 53.7717C54.0162 53.5902 53.7013 53.4995 53.349 53.4995C52.9648 53.4995 52.6018 53.5956 52.2603 53.7877C51.9187 53.9798 51.6412 54.2734 51.4277 54.6683C51.2142 55.0526 51.1075 55.5382 51.1075 56.1253V60.016H49.9387V52.6829H51.1395L51.1075 54.0279C51.3103 53.5475 51.6198 53.1739 52.0361 52.9071C52.4631 52.6402 52.9274 52.5068 53.4291 52.5068ZM57.64 59.0714H59.5133V53.6116H57.7361V52.6829H60.6661V59.0714H62.3793V60H57.64V59.0714ZM60.0257 51.1459C59.8015 51.1459 59.6094 51.0658 59.4493 50.9057C59.2891 50.7456 59.2091 50.5534 59.2091 50.3293C59.2091 50.0945 59.2838 49.897 59.4332 49.7369C59.5934 49.5768 59.7908 49.4967 60.0257 49.4967C60.2498 49.4967 60.4419 49.5821 60.6021 49.7529C60.7728 49.913 60.8582 50.1051 60.8582 50.3293C60.8582 50.5534 60.7728 50.7456 60.6021 50.9057C60.4419 51.0658 60.2498 51.1459 60.0257 51.1459ZM68.0632 60.1601C66.825 60.1601 65.7897 59.7758 64.9571 59.0073L65.5975 57.9186L65.6936 57.7745L65.7897 57.8385C65.7897 57.8598 65.795 57.9079 65.8057 57.9826C65.827 58.0573 65.859 58.132 65.9017 58.2068C65.9444 58.2815 66.0031 58.3562 66.0779 58.4309C66.3234 58.6764 66.6009 58.8685 66.9104 59.0073C67.2307 59.1354 67.6256 59.1994 68.0953 59.1994C68.6717 59.1994 69.1253 59.098 69.4562 58.8952C69.7871 58.6818 69.9525 58.3936 69.9525 58.0306C69.9525 57.7211 69.8191 57.4649 69.5523 57.2621C69.2854 57.0593 68.8051 56.8458 68.1113 56.6217C66.2753 56.0986 65.3574 55.3408 65.3574 54.3481C65.3574 53.7824 65.5868 53.334 66.0458 53.0031C66.5155 52.6722 67.1826 52.5068 68.0472 52.5068C68.709 52.5068 69.2641 52.6029 69.7124 52.795C70.1714 52.9765 70.5876 53.2647 70.9612 53.6596L70.3048 54.4602L70.1927 54.5882L70.1127 54.5082C70.102 54.3908 70.0753 54.2947 70.0326 54.22C70.0006 54.1453 69.9259 54.0599 69.8084 53.9638C69.5629 53.7717 69.2854 53.6276 68.9759 53.5315C68.677 53.4248 68.3781 53.3714 68.0792 53.3714C67.6203 53.3714 67.2413 53.4515 66.9425 53.6116C66.6543 53.7717 66.5102 53.9958 66.5102 54.284C66.5102 54.5509 66.6596 54.7964 66.9585 55.0205C67.2573 55.2447 67.7964 55.4689 68.5756 55.693C69.4936 55.9705 70.1393 56.2747 70.5129 56.6056C70.8972 56.9259 71.0893 57.3475 71.0893 57.8705C71.0893 58.5323 70.8278 59.082 70.3048 59.5197C69.7924 59.9466 69.0452 60.1601 68.0632 60.1601ZM76.405 60.1601C75.3163 60.1601 74.4463 59.8292 73.7952 59.1674C73.1548 58.5056 72.8345 57.5716 72.8345 56.3655C72.8345 55.5649 72.984 54.8764 73.2829 54.3C73.5817 53.713 73.982 53.27 74.4837 52.9711C74.996 52.6616 75.5671 52.5068 76.1969 52.5068C77.0828 52.5068 77.798 52.8003 78.3424 53.3874C78.8974 53.9745 79.1749 54.8391 79.1749 55.9812C79.1749 56.0986 79.1643 56.2747 79.1429 56.5096H73.9393C73.982 57.4062 74.2328 58.084 74.6918 58.543C75.1508 59.002 75.7326 59.2315 76.437 59.2315C77.2056 59.2315 77.8353 58.9593 78.3264 58.4149L78.9668 59.0393C78.3477 59.7865 77.4938 60.1601 76.405 60.1601ZM78.0061 55.613C78.0061 54.9298 77.83 54.3908 77.4778 53.9958C77.1362 53.5902 76.6825 53.3874 76.1168 53.3874C75.5831 53.3874 75.1188 53.5742 74.7239 53.9478C74.3289 54.3214 74.0834 54.8764 73.9873 55.613H78.0061Z" fill="#69657F"/>
</svg>
