<svg width="447" height="381" viewBox="0 0 447 381" fill="none" xmlns="http://www.w3.org/2000/svg">
<g filter="url(#filter0_d)">
<line x1="21.8438" y1="-0.52863" x2="73.3938" y2="81.7532" stroke="#69657F" stroke-opacity="0.67" stroke-width="1.99133"/>
<line x1="119.836" y1="-3.52399" x2="170.487" y2="77.3216" stroke="#69657F" stroke-opacity="0.67" stroke-width="1.97387"/>
<line x1="107.394" y1="80.3793" x2="157.367" y2="160.143" stroke="#69657F" stroke-opacity="0.67" stroke-width="1.96063"/>
<line x1="203.83" y1="76.4798" x2="253.749" y2="156.157" stroke="#69657F" stroke-opacity="0.67" stroke-width="1.95956"/>
<line x1="203.847" y1="-7.53093" x2="255.847" y2="75.4691" stroke="#69657F" stroke-opacity="0.67" stroke-width="2"/>
<path d="M290.424 73.7345L340.342 153.412" stroke="#69657F" stroke-opacity="0.67" stroke-width="1.95956"/>
<path d="M290.424 -9.26545L341.524 72.2983" stroke="#69657F" stroke-opacity="0.67" stroke-width="1.98262"/>
<line x1="371.834" y1="70.4775" x2="422.202" y2="150.873" stroke="#69657F" stroke-opacity="0.67" stroke-width="1.96837"/>
<line x1="371.838" y1="-12.5249" x2="422.656" y2="68.589" stroke="#69657F" stroke-opacity="0.67" stroke-width="1.97714"/>
<line x1="155.965" y1="160.442" x2="253.848" y2="157.001" stroke="#69657F" stroke-opacity="0.67" stroke-width="2"/>
<line x1="252.965" y1="157.001" x2="350.848" y2="153.559" stroke="#69657F" stroke-opacity="0.67" stroke-width="2"/>
<line x1="348.965" y1="153.641" x2="446.848" y2="150.199" stroke="#69657F" stroke-opacity="0.67" stroke-width="2"/>
<line x1="72.9649" y1="81.4425" x2="170.848" y2="78.0006" stroke="#69657F" stroke-opacity="0.67" stroke-width="2"/>
<line x1="169.965" y1="78.0006" x2="267.848" y2="74.5587" stroke="#69657F" stroke-opacity="0.67" stroke-width="2"/>
<line x1="265.965" y1="74.6406" x2="363.848" y2="71.1987" stroke="#69657F" stroke-opacity="0.67" stroke-width="2"/>
<line x1="197.833" y1="158.478" x2="248.033" y2="238.606" stroke="#69657F" stroke-opacity="0.67" stroke-width="1.96509"/>
<line x1="294.83" y1="155.48" x2="344.749" y2="235.157" stroke="#69657F" stroke-opacity="0.67" stroke-width="1.95956"/>
<path d="M381.424 152.735L431.342 232.412" stroke="#69657F" stroke-opacity="0.67" stroke-width="1.95956"/>
<line x1="294.847" y1="237.469" x2="345.834" y2="318.851" stroke="#69657F" stroke-opacity="0.67" stroke-width="2"/>
<line x1="391.847" y1="234.469" x2="441.766" y2="314.147" stroke="#69657F" stroke-opacity="0.67" stroke-width="2"/>
<line x1="246.965" y1="239.244" x2="344.848" y2="235.803" stroke="#69657F" stroke-opacity="0.67" stroke-width="2"/>
<line x1="343.965" y1="235.802" x2="441.848" y2="232.361" stroke="#69657F" stroke-opacity="0.67" stroke-width="2"/>
<line x1="439.965" y1="232.442" x2="537.848" y2="229.001" stroke="#69657F" stroke-opacity="0.67" stroke-width="2"/>
<line x1="356.965" y1="71.4425" x2="454.848" y2="68.0006" stroke="#69657F" stroke-opacity="0.67" stroke-width="2"/>
<line x1="344.965" y1="318.244" x2="442.848" y2="314.802" stroke="#69657F" stroke-opacity="0.67" stroke-width="2"/>
<line x1="441.965" y1="314.802" x2="539.848" y2="311.361" stroke="#69657F" stroke-opacity="0.67" stroke-width="2"/>
<path d="M324.346 219.769C326.275 222.993 324.091 227.114 320.34 227.328L255.582 231.018C253.724 231.124 251.962 230.189 251.006 228.593L217.707 172.93C215.778 169.705 217.962 165.585 221.714 165.371L286.472 161.681C288.329 161.575 290.092 162.509 291.047 164.106L324.346 219.769Z" fill="#907EFF"/>
<path d="M323.715 138.441C325.824 141.555 323.914 145.792 320.205 146.23L261.453 153.172C259.603 153.39 257.782 152.553 256.73 151L223.334 101.688C221.225 98.5748 223.135 94.3378 226.844 93.8995L285.597 86.9578C287.446 86.7393 289.267 87.5768 290.319 89.1292L323.715 138.441Z" fill="#907EFF"/>
<path d="M403.866 129.029C406.344 131.749 403.989 136.211 399.751 136.824L351.563 143.804C349.787 144.061 348.096 143.531 347.058 142.391L318.88 111.459C316.402 108.739 318.757 104.277 322.995 103.664L371.183 96.6841C372.959 96.4269 374.65 96.9573 375.688 98.0972L403.866 129.029Z" fill="#907EFF"/>
<path d="M403.866 47.0286C406.344 49.7486 403.989 54.2107 399.751 54.8244L351.563 61.8038C349.787 62.061 348.096 61.5307 347.058 60.3908L318.88 29.4594C316.402 26.7394 318.757 22.2773 322.995 21.6635L371.183 14.6841C372.959 14.4269 374.65 14.9573 375.688 16.0972L403.866 47.0286Z" fill="#907EFF"/>
<path d="M240.552 60.4978C242.597 63.6488 240.547 67.8456 236.796 68.1896L178.743 73.5135C176.891 73.6834 175.099 72.8158 174.09 71.2604L142.448 22.5022C140.403 19.3512 142.453 15.1544 146.204 14.8104L204.257 9.48647C206.109 9.31664 207.901 10.1842 208.91 11.7396L240.552 60.4978Z" fill="#907EFF"/>
<path d="M235.453 142.144C237.382 145.368 235.198 149.489 231.447 149.702L166.689 153.393C164.831 153.498 163.069 152.564 162.114 150.968L128.814 95.3044C126.885 92.0798 129.069 87.9594 132.821 87.7456L197.579 84.0555C199.436 83.9497 201.199 84.8839 202.154 86.4806L235.453 142.144Z" fill="#907EFF"/>
<path d="M150.346 64.7688C152.275 67.9934 150.091 72.1138 146.34 72.3276L81.5818 76.0177C79.7243 76.1235 77.9616 75.1893 77.0065 73.5927L43.7073 17.9295C41.7782 14.705 43.9622 10.5845 47.7136 10.3708L112.472 6.68065C114.329 6.57481 116.092 7.50906 117.047 9.10567L150.346 64.7688Z" fill="#907EFF"/>
<path d="M325.996 56.4414C328.105 59.5547 326.195 63.7917 322.486 64.23L263.733 71.1717C261.884 71.3902 260.062 70.5527 259.011 69.0004L225.615 19.6881C223.506 16.5748 225.416 12.3378 229.125 11.8995L287.877 4.95783C289.727 4.73931 291.548 5.57681 292.6 7.12915L325.996 56.4414Z" fill="#907EFF"/>
<path d="M420.346 298.769C422.275 301.993 420.091 306.114 416.34 306.328L351.582 310.018C349.724 310.124 347.962 309.189 347.006 307.593L313.707 251.93C311.778 248.705 313.962 244.585 317.714 244.371L382.472 240.681C384.329 240.575 386.092 241.509 387.047 243.106L420.346 298.769Z" fill="#907EFF"/>
<path d="M411.434 212.901C413.912 215.621 411.556 220.083 407.319 220.697L359.13 227.677C357.355 227.934 355.664 227.404 354.625 226.264L326.447 195.332C323.969 192.612 326.325 188.15 330.562 187.536L378.751 180.557C380.526 180.3 382.217 180.83 383.256 181.97L411.434 212.901Z" fill="#907EFF"/>
</g>
<defs>
<filter id="filter0_d" x="17" y="-21.0733" width="639.883" height="366.845" filterUnits="userSpaceOnUse" color-interpolation-filters="sRGB">
<feFlood flood-opacity="0" result="BackgroundImageFix"/>
<feColorMatrix in="SourceAlpha" type="matrix" values="0 0 0 0 0 0 0 0 0 0 0 0 0 0 0 0 0 0 127 0"/>
<feOffset dy="4"/>
<feGaussianBlur stdDeviation="2"/>
<feColorMatrix type="matrix" values="0 0 0 0 0 0 0 0 0 0 0 0 0 0 0 0 0 0 0.25 0"/>
<feBlend mode="normal" in2="BackgroundImageFix" result="effect1_dropShadow"/>
<feBlend mode="normal" in="SourceGraphic" in2="effect1_dropShadow" result="shape"/>
</filter>
</defs>
</svg>
