<svg viewBox="0 0 1440 1024" fill="none" xmlns="http://www.w3.org/2000/svg">
<g id="Homepage" clip-path="url(#clip0)">
<rect width="1440" height="1024" fill="white"/>
<g id="Background">
<rect id="Rectangle" x="-456" y="-58.0638" width="793.441" height="888.168" transform="rotate(-13.7014 -456 -58.0638)" fill="#6D5FFF" fill-opacity="0.7"/>
<rect id="Rectangle_2" x="314" y="-246.064" width="518.221" height="888.168" transform="rotate(-13.7014 314 -246.064)" fill="#B3ABFF" fill-opacity="0.7"/>
<rect id="Rectangle_3" x="817" y="-368.064" width="793.441" height="888.168" transform="rotate(-13.7014 817 -368.064)" fill="#998FFF"/>
<rect id="Rectangle_4" x="987" y="503.936" width="793.441" height="888.168" transform="rotate(-13.7014 987 503.936)" fill="#B3ABFF" fill-opacity="0.7"/>
<rect id="Rectangle_5" x="484.846" y="624.879" width="518.779" height="888.168" transform="rotate(-13.7014 484.846 624.879)" fill="#6D5FFF" fill-opacity="0.7"/>
<rect id="Rectangle_6" x="-287" y="812.936" width="793.441" height="888.168" transform="rotate(-13.7014 -287 812.936)" fill="#B3ABFF" fill-opacity="0.7"/>
<g id="Group 2">
<rect id="Rectangle 2" x="988.941" y="502.571" width="45.6553" height="576.896" transform="rotate(-13.7 988.941 502.571)" fill="#DCD8FF"/>
<rect id="Rectangle 2.1" x="1043.27" y="532.623" width="42.0646" height="530.976" transform="rotate(-103.7 1043.27 532.623)" fill="#DCD8FF"/>
</g>
<g id="Group">
<rect id="Rectangle 2_2" x="514.033" y="570.067" width="42.4477" height="615.581" transform="rotate(166.3 514.033 570.067)" fill="#F8F7FF" fill-opacity="0.7"/>
<rect id="Rectangle 2.1_2" x="514.241" y="570" width="45.6553" height="576.648" transform="rotate(76.3 514.241 570)" fill="#F8F7FF" fill-opacity="0.7"/>
</g>
</g>
<g id="Top Right Design" filter="url(#filter0_d)">
<line id="Line" x1="1014.84" y1="-0.528615" x2="1066.39" y2="81.7533" stroke="#69657F" stroke-opacity="0.67" stroke-width="1.99133"/>
<line id="Line_2" x1="1112.84" y1="-3.52398" x2="1163.49" y2="77.3216" stroke="#69657F" stroke-opacity="0.67" stroke-width="1.97387"/>
<line id="Line_3" x1="1100.39" y1="80.3793" x2="1150.37" y2="160.143" stroke="#69657F" stroke-opacity="0.67" stroke-width="1.96063"/>
<line id="Line_4" x1="1196.83" y1="76.4798" x2="1246.75" y2="156.157" stroke="#69657F" stroke-opacity="0.67" stroke-width="1.95956"/>
<line id="Line_5" x1="1196.85" y1="-7.53092" x2="1248.85" y2="75.4691" stroke="#69657F" stroke-opacity="0.67" stroke-width="2"/>
<path id="Line_6" d="M1283.42 73.7346L1333.34 153.412" stroke="#69657F" stroke-opacity="0.67" stroke-width="1.95956"/>
<path id="Line_7" d="M1283.42 -9.26544L1334.52 72.2983" stroke="#69657F" stroke-opacity="0.67" stroke-width="1.98262"/>
<line id="Line_8" x1="1364.83" y1="70.4775" x2="1415.2" y2="150.873" stroke="#69657F" stroke-opacity="0.67" stroke-width="1.96837"/>
<line id="Line_9" x1="1364.84" y1="-12.5248" x2="1415.66" y2="68.589" stroke="#69657F" stroke-opacity="0.67" stroke-width="1.97714"/>
<line id="Line_10" x1="1148.96" y1="160.443" x2="1246.85" y2="157.001" stroke="#69657F" stroke-opacity="0.67" stroke-width="2"/>
<line id="Line_11" x1="1245.96" y1="157.001" x2="1343.85" y2="153.559" stroke="#69657F" stroke-opacity="0.67" stroke-width="2"/>
<line id="Line_12" x1="1341.96" y1="153.641" x2="1439.85" y2="150.199" stroke="#69657F" stroke-opacity="0.67" stroke-width="2"/>
<g id="Group_2">
<line id="Line_13" x1="1065.96" y1="81.4425" x2="1163.85" y2="78.0006" stroke="#69657F" stroke-opacity="0.67" stroke-width="2"/>
<line id="Line_14" x1="1162.96" y1="78.0006" x2="1260.85" y2="74.5587" stroke="#69657F" stroke-opacity="0.67" stroke-width="2"/>
<line id="Line_15" x1="1258.96" y1="74.6406" x2="1356.85" y2="71.1987" stroke="#69657F" stroke-opacity="0.67" stroke-width="2"/>
</g>
<line id="Line_16" x1="1190.83" y1="158.478" x2="1241.03" y2="238.606" stroke="#69657F" stroke-opacity="0.67" stroke-width="1.96509"/>
<line id="Line_17" x1="1287.83" y1="155.48" x2="1337.75" y2="235.157" stroke="#69657F" stroke-opacity="0.67" stroke-width="1.95956"/>
<path id="Line_18" d="M1374.42 152.735L1424.34 232.412" stroke="#69657F" stroke-opacity="0.67" stroke-width="1.95956"/>
<line id="Line_19" x1="1287.85" y1="237.469" x2="1338.83" y2="318.851" stroke="#69657F" stroke-opacity="0.67" stroke-width="2"/>
<line id="Line_20" x1="1384.85" y1="234.469" x2="1434.77" y2="314.147" stroke="#69657F" stroke-opacity="0.67" stroke-width="2"/>
<g id="Group_3">
<line id="Line_21" x1="1239.96" y1="239.244" x2="1337.85" y2="235.803" stroke="#69657F" stroke-opacity="0.67" stroke-width="2"/>
<line id="Line_22" x1="1336.96" y1="235.802" x2="1434.85" y2="232.361" stroke="#69657F" stroke-opacity="0.67" stroke-width="2"/>
<line id="Line_23" x1="1432.96" y1="232.442" x2="1530.85" y2="229.001" stroke="#69657F" stroke-opacity="0.67" stroke-width="2"/>
</g>
<g id="Group_4">
<line id="Line_24" x1="1349.96" y1="71.4425" x2="1447.85" y2="68.0006" stroke="#69657F" stroke-opacity="0.67" stroke-width="2"/>
</g>
<g id="Group_5">
<line id="Line_25" x1="1337.96" y1="318.244" x2="1435.85" y2="314.802" stroke="#69657F" stroke-opacity="0.67" stroke-width="2"/>
<line id="Line_26" x1="1434.96" y1="314.802" x2="1532.85" y2="311.361" stroke="#69657F" stroke-opacity="0.67" stroke-width="2"/>
</g>
<g id="Group_6" filter="url(#filter1_d)">
<g id="Group 2_2">
<g id="Polygon">
<path d="M1317.35 219.769C1319.28 222.993 1317.09 227.114 1313.34 227.328L1248.58 231.018C1246.72 231.124 1244.96 230.189 1244.01 228.593L1210.71 172.93C1208.78 169.705 1210.96 165.585 1214.71 165.371L1279.47 161.681C1281.33 161.575 1283.09 162.509 1284.05 164.106L1317.35 219.769Z" fill="#907EFF"/>
<path d="M1316.92 220.026C1318.65 222.928 1316.69 226.636 1313.31 226.828L1248.55 230.519C1246.88 230.614 1245.3 229.773 1244.44 228.336L1211.14 172.673C1209.4 169.771 1211.37 166.062 1214.74 165.87L1279.5 162.18C1281.17 162.085 1282.76 162.925 1283.62 164.362L1316.92 220.026Z" stroke="#69657F" stroke-opacity="0.67"/>
</g>
</g>
<g id="Group 3">
<g id="Group 2_3">
<g id="Polygon_2">
<path d="M1316.72 138.441C1318.82 141.555 1316.91 145.792 1313.2 146.23L1254.45 153.172C1252.6 153.39 1250.78 152.553 1249.73 151L1216.33 101.688C1214.23 98.5748 1216.14 94.3378 1219.84 93.8995L1278.6 86.9578C1280.45 86.7393 1282.27 87.5768 1283.32 89.1292L1316.72 138.441Z" fill="#907EFF"/>
<path d="M1316.3 138.722C1318.2 141.524 1316.48 145.338 1313.14 145.732L1254.39 152.674C1252.73 152.87 1251.09 152.117 1250.14 150.72L1216.75 101.407C1214.85 98.6053 1216.57 94.792 1219.9 94.3975L1278.66 87.4558C1280.32 87.2592 1281.96 88.0129 1282.91 89.41L1316.3 138.722Z" stroke="#69657F" stroke-opacity="0.67"/>
</g>
</g>
<g id="Group 2.1">
<g id="Polygon_3">
<path d="M1396.87 129.029C1399.34 131.749 1396.99 136.211 1392.75 136.824L1344.56 143.804C1342.79 144.061 1341.1 143.531 1340.06 142.391L1311.88 111.459C1309.4 108.739 1311.76 104.277 1315.99 103.664L1364.18 96.6841C1365.96 96.4269 1367.65 96.9573 1368.69 98.0972L1396.87 129.029Z" fill="#907EFF"/>
<path d="M1396.44 129.348C1398.67 131.796 1396.55 135.812 1392.73 136.364L1344.54 143.343C1342.95 143.575 1341.42 143.098 1340.49 142.072L1312.31 111.14C1310.08 108.692 1312.2 104.676 1316.01 104.124L1364.2 97.1446C1365.8 96.9131 1367.32 97.3904 1368.26 98.4163L1396.44 129.348Z" stroke="#69657F" stroke-opacity="0.67"/>
</g>
</g>
<g id="Group 2.2">
<g id="Polygon_4">
<path d="M1396.87 47.0286C1399.34 49.7486 1396.99 54.2107 1392.75 54.8244L1344.56 61.8038C1342.79 62.061 1341.1 61.5307 1340.06 60.3908L1311.88 29.4594C1309.4 26.7394 1311.76 22.2773 1315.99 21.6635L1364.18 14.6841C1365.96 14.4269 1367.65 14.9572 1368.69 16.0971L1396.87 47.0286Z" fill="#907EFF"/>
<path d="M1396.44 47.3477C1398.67 49.7957 1396.55 53.8116 1392.73 54.364L1344.54 61.3434C1342.95 61.5749 1341.42 61.0976 1340.49 60.0717L1312.31 29.1402C1310.08 26.6922 1312.2 22.6763 1316.01 22.124L1364.2 15.1446C1365.8 14.9131 1367.32 15.3904 1368.26 16.4163L1396.44 47.3477Z" stroke="#69657F" stroke-opacity="0.67"/>
</g>
</g>
<g id="Group 2.4">
<g id="Polygon_5">
<path d="M1233.55 60.4978C1235.6 63.6488 1233.55 67.8456 1229.8 68.1897L1171.74 73.5136C1169.89 73.6834 1168.1 72.8158 1167.09 71.2604L1135.45 22.5023C1133.4 19.3512 1135.45 15.1545 1139.2 14.8104L1197.26 9.4865C1199.11 9.31667 1200.9 10.1842 1201.91 11.7396L1233.55 60.4978Z" fill="#907EFF"/>
<path d="M1233.13 60.7697C1234.97 63.6057 1233.13 67.3828 1229.75 67.6924L1171.7 73.0163C1170.03 73.1692 1168.42 72.3883 1167.51 70.9885L1135.87 22.2303C1134.03 19.3944 1135.87 15.6173 1139.25 15.3076L1197.3 9.98375C1198.97 9.8309 1200.58 10.6117 1201.49 12.0116L1233.13 60.7697Z" stroke="#69657F" stroke-opacity="0.67"/>
</g>
</g>
<g id="Group 2_4">
<g id="Polygon_6">
<path d="M1228.45 142.144C1230.38 145.368 1228.2 149.489 1224.45 149.702L1159.69 153.393C1157.83 153.498 1156.07 152.564 1155.11 150.968L1121.81 95.3044C1119.89 92.0798 1122.07 87.9594 1125.82 87.7456L1190.58 84.0555C1192.44 83.9497 1194.2 84.8839 1195.15 86.4806L1228.45 142.144Z" fill="#907EFF"/>
<path d="M1228.02 142.4C1229.76 145.303 1227.79 149.011 1224.42 149.203L1159.66 152.893C1157.99 152.989 1156.4 152.148 1155.54 150.711L1122.24 95.0477C1120.51 92.1456 1122.47 88.4372 1125.85 88.2448L1190.61 84.5547C1192.28 84.4595 1193.87 85.3003 1194.73 86.7372L1228.02 142.4Z" stroke="#69657F" stroke-opacity="0.67"/>
</g>
</g>
<g id="Group 2.2_2">
<g id="Polygon_7">
<path d="M1143.35 64.7688C1145.28 67.9934 1143.09 72.1138 1139.34 72.3276L1074.58 76.0177C1072.72 76.1235 1070.96 75.1893 1070.01 73.5927L1036.71 17.9295C1034.78 14.705 1036.96 10.5845 1040.71 10.3708L1105.47 6.68065C1107.33 6.57481 1109.09 7.50906 1110.05 9.10567L1143.35 64.7688Z" fill="#907EFF"/>
<path d="M1142.92 65.0255C1144.65 67.9276 1142.69 71.636 1139.31 71.8284L1074.55 75.5185C1072.88 75.6138 1071.3 74.7729 1070.44 73.336L1037.14 17.6728C1035.4 14.7707 1037.37 11.0623 1040.74 10.8699L1105.5 7.17985C1107.17 7.08458 1108.76 7.92541 1109.62 9.36236L1142.92 65.0255Z" stroke="#69657F" stroke-opacity="0.67"/>
</g>
</g>
<g id="Group 2.3">
<g id="Polygon_8">
<path d="M1319 56.4414C1321.1 59.5547 1319.19 63.7917 1315.49 64.23L1256.73 71.1717C1254.88 71.3902 1253.06 70.5527 1252.01 69.0004L1218.61 19.6881C1216.51 16.5748 1218.42 12.3378 1222.13 11.8995L1280.88 4.95783C1282.73 4.73931 1284.55 5.57681 1285.6 7.12916L1319 56.4414Z" fill="#907EFF"/>
<path d="M1318.58 56.7223C1320.48 59.5243 1318.76 63.3375 1315.42 63.732L1256.67 70.6737C1255.01 70.8704 1253.37 70.1166 1252.42 68.7195L1219.03 19.4072C1217.13 16.6053 1218.85 12.792 1222.19 12.3975L1280.94 5.45583C1282.6 5.25916 1284.24 6.01291 1285.19 7.41002L1318.58 56.7223Z" stroke="#69657F" stroke-opacity="0.67"/>
</g>
</g>
</g>
<g id="Group 2_5">
<g id="Polygon_9">
<path d="M1413.35 298.769C1415.28 301.993 1413.09 306.114 1409.34 306.328L1344.58 310.018C1342.72 310.124 1340.96 309.189 1340.01 307.593L1306.71 251.93C1304.78 248.705 1306.96 244.585 1310.71 244.371L1375.47 240.681C1377.33 240.575 1379.09 241.509 1380.05 243.106L1413.35 298.769Z" fill="#907EFF"/>
<path d="M1412.92 299.026C1414.65 301.928 1412.69 305.636 1409.31 305.828L1344.55 309.519C1342.88 309.614 1341.3 308.773 1340.44 307.336L1307.14 251.673C1305.4 248.771 1307.37 245.062 1310.74 244.87L1375.5 241.18C1377.17 241.085 1378.76 241.925 1379.62 243.362L1412.92 299.026Z" stroke="#69657F" stroke-opacity="0.67"/>
</g>
</g>
<g id="Polygon_10">
<path d="M1404.43 212.901C1406.91 215.621 1404.56 220.083 1400.32 220.697L1352.13 227.677C1350.35 227.934 1348.66 227.404 1347.63 226.264L1319.45 195.332C1316.97 192.612 1319.32 188.15 1323.56 187.536L1371.75 180.557C1373.53 180.3 1375.22 180.83 1376.26 181.97L1404.43 212.901Z" fill="#907EFF"/>
<path d="M1404 213.221C1406.23 215.669 1404.11 219.684 1400.3 220.237L1352.11 227.216C1350.51 227.448 1348.99 226.97 1348.06 225.944L1319.88 195.013C1317.65 192.565 1319.77 188.549 1323.58 187.997L1371.77 181.017C1373.37 180.786 1374.89 181.263 1375.82 182.289L1404 213.221Z" stroke="#69657F" stroke-opacity="0.67"/>
</g>
</g>
</g>
<g id="Bottom Left Design" filter="url(#filter2_d)">
<g id="Group_7">
<g id="Group 2_6">
<path id="Polygon_11" d="M118.995 804.295C117.082 801.062 119.285 796.952 123.038 796.756L187.813 793.374C189.67 793.277 191.429 794.219 192.376 795.82L225.41 851.641C227.324 854.875 225.12 858.985 221.368 859.181L156.593 862.563C154.735 862.66 152.977 861.717 152.029 860.116L118.995 804.295Z" fill="#907EFF"/>
</g>
<g id="Group 3_2">
<g id="Group 2_7">
<path id="Polygon_12" d="M119.239 885.625C117.146 882.502 119.076 878.274 122.787 877.853L181.571 871.191C183.422 870.981 185.239 871.827 186.283 873.385L219.445 922.855C221.538 925.979 219.609 930.206 215.897 930.627L157.113 937.289C155.262 937.499 153.445 936.653 152.401 935.095L119.239 885.625Z" fill="#907EFF"/>
</g>
<g id="Group 2.1_2">
<path id="Polygon_13" d="M39.0446 894.656C36.5797 891.925 38.9561 887.474 43.1965 886.88L91.4175 880.13C93.1946 879.881 94.8829 880.42 95.9159 881.564L123.946 912.63C126.411 915.361 124.035 919.812 119.795 920.406L71.5735 927.156C69.7964 927.405 68.1081 926.866 67.0751 925.721L39.0446 894.656Z" fill="#907EFF"/>
</g>
<g id="Group 2.2_3">
<path id="Polygon_14" d="M38.6545 976.655C36.1896 973.924 38.566 969.473 42.8064 968.879L91.0275 962.129C92.8045 961.88 94.4928 962.419 95.5258 963.564L123.556 994.629C126.021 997.36 123.645 1001.81 119.404 1002.4L71.1834 1009.15C69.4064 1009.4 67.7181 1008.87 66.6851 1007.72L38.6545 976.655Z" fill="#907EFF"/>
</g>
<g id="Group 2.4_2">
<path id="Polygon_15" d="M202.031 963.963C200.001 960.803 202.07 956.616 205.824 956.289L263.901 951.242C265.754 951.081 267.541 951.957 268.543 953.517L299.953 1002.43C301.983 1005.59 299.913 1009.77 296.16 1010.1L238.083 1015.15C236.23 1015.31 234.442 1014.43 233.44 1012.87L202.031 963.963Z" fill="#907EFF"/>
</g>
<g id="Group 2_8">
<path id="Polygon_16" d="M207.518 882.343C205.604 879.109 207.808 874.999 211.56 874.803L276.335 871.421C278.193 871.324 279.951 872.267 280.899 873.868L313.933 929.689C315.846 932.922 313.643 937.032 309.89 937.228L245.116 940.61C243.258 940.707 241.499 939.765 240.552 938.163L207.518 882.343Z" fill="#907EFF"/>
</g>
<g id="Group 2.2_4">
<path id="Polygon_17" d="M292.256 960.121C290.342 956.888 292.546 952.778 296.298 952.582L361.073 949.2C362.931 949.103 364.689 950.045 365.637 951.647L398.671 1007.47C400.585 1010.7 398.381 1014.81 394.629 1015.01L329.854 1018.39C327.996 1018.49 326.238 1017.54 325.29 1015.94L292.256 960.121Z" fill="#907EFF"/>
</g>
<g id="Group 2.3_2">
<path id="Polygon_18" d="M116.568 967.613C114.475 964.49 116.405 960.262 120.116 959.841L178.901 953.179C180.751 952.969 182.568 953.816 183.612 955.373L216.774 1004.84C218.868 1007.97 216.938 1012.19 213.226 1012.62L154.442 1019.28C152.591 1019.49 150.774 1018.64 149.73 1017.08L116.568 967.613Z" fill="#907EFF"/>
</g>
</g>
<g id="Group 2_9">
<path id="Polygon_19" d="M23.3723 724.84C21.4586 721.606 23.6622 717.496 27.4146 717.3L92.1895 713.918C94.0474 713.821 95.8056 714.764 96.7532 716.365L129.787 772.186C131.701 775.419 129.497 779.529 125.745 779.725L60.97 783.107C59.1121 783.204 57.3539 782.262 56.4063 780.66L23.3723 724.84Z" fill="#907EFF"/>
</g>
<path id="Polygon_20" d="M31.8762 810.748C29.4113 808.017 31.7877 803.566 36.0281 802.972L84.2491 796.222C86.0262 795.973 87.7145 796.512 88.7475 797.657L116.778 828.722C119.243 831.453 116.867 835.904 112.626 836.498L64.4051 843.248C62.628 843.497 60.9397 842.958 59.9067 841.814L31.8762 810.748Z" fill="#907EFF"/>
</g>
<g id="Group_8">
<line id="Line_27" x1="420.04" y1="1024.91" x2="368.49" y2="942.629" stroke="#69657F" stroke-opacity="0.67" stroke-width="1.99133"/>
<line id="Line_28" x1="322.047" y1="1027.91" x2="271.397" y2="947.06" stroke="#69657F" stroke-opacity="0.67" stroke-width="1.97387"/>
<line id="Line_29" x1="334.489" y1="944.003" x2="284.516" y2="864.239" stroke="#69657F" stroke-opacity="0.67" stroke-width="1.96063"/>
<line id="Line_30" x1="238.053" y1="947.902" x2="188.135" y2="868.225" stroke="#69657F" stroke-opacity="0.67" stroke-width="1.95956"/>
<line id="Line_31" x1="238.036" y1="1031.91" x2="186.036" y2="948.913" stroke="#69657F" stroke-opacity="0.67" stroke-width="2"/>
<path id="Line_32" d="M151.46 950.647L101.541 870.97" stroke="#69657F" stroke-opacity="0.67" stroke-width="1.95956"/>
<path id="Line_33" d="M151.46 1033.65L100.359 952.084" stroke="#69657F" stroke-opacity="0.67" stroke-width="1.98262"/>
<line id="Line_34" x1="70.0493" y1="953.905" x2="19.6809" y2="873.509" stroke="#69657F" stroke-opacity="0.67" stroke-width="1.96837"/>
<line id="Line_35" x1="70.0456" y1="1036.91" x2="19.2273" y2="955.793" stroke="#69657F" stroke-opacity="0.67" stroke-width="1.97714"/>
<line id="Line_36" x1="285.919" y1="863.94" x2="188.035" y2="867.381" stroke="#69657F" stroke-opacity="0.67" stroke-width="2"/>
<line id="Line_37" x1="188.919" y1="867.381" x2="91.0351" y2="870.823" stroke="#69657F" stroke-opacity="0.67" stroke-width="2"/>
<line id="Line_38" x1="92.9185" y1="870.741" x2="-4.96487" y2="874.183" stroke="#69657F" stroke-opacity="0.67" stroke-width="2"/>
<g id="Group_9">
<line id="Line_39" x1="368.919" y1="942.94" x2="271.035" y2="946.381" stroke="#69657F" stroke-opacity="0.67" stroke-width="2"/>
<line id="Line_40" x1="271.919" y1="946.381" x2="174.035" y2="949.823" stroke="#69657F" stroke-opacity="0.67" stroke-width="2"/>
<line id="Line_41" x1="175.919" y1="949.741" x2="78.0351" y2="953.183" stroke="#69657F" stroke-opacity="0.67" stroke-width="2"/>
</g>
<line id="Line_42" x1="244.051" y1="865.904" x2="193.85" y2="785.776" stroke="#69657F" stroke-opacity="0.67" stroke-width="1.96509"/>
<line id="Line_43" x1="147.053" y1="868.902" x2="97.1346" y2="789.225" stroke="#69657F" stroke-opacity="0.67" stroke-width="1.95956"/>
<path id="Line_44" d="M60.4597 871.647L10.5412 791.97" stroke="#69657F" stroke-opacity="0.67" stroke-width="1.95956"/>
<line id="Line_45" x1="147.036" y1="786.913" x2="96.0496" y2="705.531" stroke="#69657F" stroke-opacity="0.67" stroke-width="2"/>
<line id="Line_46" x1="50.0359" y1="789.913" x2="0.117455" y2="710.235" stroke="#69657F" stroke-opacity="0.67" stroke-width="2"/>
<g id="Group_10">
<line id="Line_47" x1="194.919" y1="785.138" x2="97.0351" y2="788.58" stroke="#69657F" stroke-opacity="0.67" stroke-width="2"/>
<line id="Line_48" x1="97.9185" y1="788.58" x2="0.0351325" y2="792.021" stroke="#69657F" stroke-opacity="0.67" stroke-width="2"/>
<line id="Line_49" x1="1.9185" y1="791.94" x2="-95.9649" y2="795.381" stroke="#69657F" stroke-opacity="0.67" stroke-width="2"/>
</g>
<g id="Group_11">
<line id="Line_50" x1="84.9185" y1="952.94" x2="-12.9649" y2="956.381" stroke="#69657F" stroke-opacity="0.67" stroke-width="2"/>
</g>
<g id="Group_12">
<line id="Line_51" x1="96.9185" y1="706.138" x2="-0.964868" y2="709.58" stroke="#69657F" stroke-opacity="0.67" stroke-width="2"/>
</g>
</g>
</g>
<g id="Logo">
<path id="Vector" d="M715.737 499.407C794.495 499.407 858.475 438.946 858.475 364.204C858.475 289.462 794.495 229 715.737 229C636.979 229 573 289.462 573 364.204C573 438.946 636.979 499.407 715.737 499.407Z" fill="#25292C" stroke="#6270FF" stroke-width="3.46299"/>
<path id="Vector_2" d="M661.753 296.193L659.968 433.979" stroke="url(#paint0_linear)" stroke-width="3.46299" stroke-linecap="square"/>
<path id="Vector_3" d="M766.195 296.193L764.409 433.979" stroke="url(#paint1_linear)" stroke-width="3.46299" stroke-linecap="square"/>
<path id="Vector_4" d="M660.035 361.62H764.477" stroke="#5A4ED2" stroke-width="3.46299"/>
</g>
<g id="Humane Interface Design Enterprise" filter="url(#filter3_b)">
<path d="M294.459 533.364H298.491V533.708C298.294 533.905 298.163 534.118 298.098 534.347C298.065 534.577 298.049 534.97 298.049 535.527V546.444H310.047V533.364H314.08V533.708C313.883 533.905 313.752 534.118 313.686 534.347C313.654 534.577 313.637 534.97 313.637 535.527V564H309.998V549.395H298.049V564H294.459V533.364ZM468.098 561.099H474.146V536.265H468.442V533.364H483.637V536.265H477.588V561.148H483.932V564H468.098V561.099ZM712.648 533.364H719.778C722.302 533.364 724.302 533.708 725.777 534.396C727.253 535.052 728.531 536.101 729.613 537.544C731.613 540.232 732.613 544.002 732.613 548.854C732.416 553.804 731.269 557.591 729.171 560.213C727.072 562.803 723.745 564.082 719.188 564.049H712.648V533.364ZM719.04 561.345C725.794 561.345 729.171 557.247 729.171 549.051C729.138 544.887 728.367 541.723 726.859 539.56C725.351 537.363 722.925 536.265 719.581 536.265H715.893V561.345H719.04ZM885.008 533.314H903.793V536.363H888.253V546.444H901.088V549.592H888.253V560.951H903.645V564H885.008V533.314Z" fill="#7D6DDE"/>
<path d="M327.456 564.541C325.095 564.541 323.21 563.672 321.8 561.935C320.391 560.164 319.702 557.542 319.735 554.067L319.784 541.527H323.226V554.067C323.226 556.755 323.685 558.705 324.603 559.918C325.554 561.099 326.8 561.689 328.341 561.689C330.045 561.689 331.472 561.033 332.619 559.722C333.799 558.378 334.389 556.443 334.389 553.919V541.527H337.832V560.509C337.832 561.295 337.848 561.951 337.881 562.476C337.946 562.967 338.094 563.475 338.323 564H334.93C334.701 563.508 334.553 563 334.488 562.476C334.455 561.951 334.438 561.312 334.438 560.558C333.717 561.803 332.734 562.787 331.488 563.508C330.275 564.197 328.931 564.541 327.456 564.541ZM343.044 541.527H346.29V543.74C346.814 542.92 347.486 542.264 348.306 541.773C349.126 541.248 349.978 540.986 350.863 540.986C351.847 540.986 352.699 541.297 353.42 541.92C354.174 542.543 354.65 543.33 354.846 544.281C355.273 543.297 355.945 542.51 356.863 541.92C357.78 541.297 358.797 540.986 359.911 540.986C361.387 540.986 362.485 541.527 363.206 542.609C363.96 543.658 364.304 545.035 364.239 546.739V564H360.993V548.067C360.993 546.198 360.813 544.985 360.452 544.428C360.092 543.871 359.567 543.592 358.879 543.592C358.289 543.592 357.715 543.871 357.158 544.428C356.6 544.985 356.141 545.707 355.781 546.592C355.453 547.444 355.289 548.297 355.289 549.149V564H351.994V548.362C351.994 546.526 351.814 545.297 351.453 544.674C351.125 544.018 350.486 543.691 349.535 543.691C349.044 543.691 348.535 543.92 348.011 544.379C347.519 544.805 347.109 545.428 346.782 546.248C346.454 547.034 346.29 547.952 346.29 549.001V564H343.044V541.527ZM377.762 541.035C380.975 541.035 383.417 541.871 385.089 543.543C386.794 545.215 387.646 548.051 387.646 552.05V564H383.811V560.558C382.434 563.213 379.877 564.541 376.139 564.541C373.648 564.541 371.697 563.984 370.287 562.869C368.878 561.722 368.173 560.213 368.173 558.345C368.173 556.771 368.681 555.394 369.697 554.214C370.714 553.034 372.074 552.132 373.779 551.509C375.516 550.854 377.418 550.526 379.483 550.526C381.352 550.526 383.04 550.624 384.548 550.821C384.352 548.297 383.68 546.526 382.532 545.51C381.418 544.461 379.746 543.936 377.516 543.936C376.402 543.936 375.32 544.149 374.271 544.576C373.254 545.002 372.32 545.625 371.468 546.444L369.747 544.182C371.845 542.084 374.517 541.035 377.762 541.035ZM376.484 561.836C378.91 561.836 380.827 561.131 382.237 559.722C383.647 558.279 384.417 556.214 384.548 553.526C383.073 553.296 381.483 553.181 379.778 553.181C377.287 553.181 375.32 553.591 373.877 554.411C372.435 555.23 371.714 556.476 371.714 558.148C371.714 560.607 373.304 561.836 376.484 561.836ZM393.892 541.527H397.334V545.51C398.219 544.133 399.334 543.035 400.678 542.215C402.022 541.396 403.448 540.986 404.956 540.986C406.956 540.986 408.546 541.756 409.726 543.297C410.939 544.805 411.546 547.166 411.546 550.378V564H408.103V550.477C408.103 548.247 407.726 546.625 406.972 545.608C406.218 544.592 405.218 544.084 403.973 544.084C402.956 544.084 401.924 544.379 400.875 544.969C399.858 545.559 399.006 546.395 398.318 547.477C397.662 548.526 397.334 549.723 397.334 551.067V564H393.892V541.527ZM428.315 564.492C424.971 564.492 422.299 563.475 420.299 561.443C418.332 559.41 417.348 556.542 417.348 552.837C417.348 550.378 417.807 548.264 418.725 546.494C419.643 544.69 420.873 543.33 422.414 542.412C423.987 541.461 425.741 540.986 427.675 540.986C430.396 540.986 432.593 541.887 434.265 543.691C435.97 545.494 436.822 548.149 436.822 551.657C436.822 552.018 436.789 552.558 436.724 553.28H420.742C420.873 556.034 421.643 558.115 423.053 559.525C424.463 560.935 426.249 561.64 428.413 561.64C430.773 561.64 432.708 560.804 434.216 559.132L436.183 561.049C434.281 563.344 431.659 564.492 428.315 564.492ZM433.232 550.526C433.232 548.428 432.691 546.772 431.609 545.559C430.56 544.313 429.167 543.691 427.429 543.691C425.79 543.691 424.364 544.264 423.151 545.412C421.938 546.559 421.184 548.264 420.889 550.526H433.232ZM492.243 541.527H495.685V545.51C496.57 544.133 497.685 543.035 499.029 542.215C500.373 541.396 501.799 540.986 503.307 540.986C505.307 540.986 506.897 541.756 508.077 543.297C509.29 544.805 509.897 547.166 509.897 550.378V564H506.455V550.477C506.455 548.247 506.078 546.625 505.323 545.608C504.569 544.592 503.57 544.084 502.324 544.084C501.307 544.084 500.275 544.379 499.226 544.969C498.209 545.559 497.357 546.395 496.669 547.477C496.013 548.526 495.685 549.723 495.685 551.067V564H492.243V541.527ZM535.124 561.935C532.96 563.541 530.583 564.344 527.993 564.344C525.502 564.344 523.732 563.59 522.682 562.082C521.666 560.574 521.158 558.115 521.158 554.706C521.158 554.149 521.191 553.181 521.256 551.804L521.699 544.428H516.732V541.527H521.896L522.24 535.527L526.174 534.888L526.666 534.839L526.715 535.134C526.485 535.462 526.305 535.74 526.174 535.97C526.076 536.199 526.01 536.56 525.977 537.052L525.436 541.527H532.911V544.428H525.24L524.797 552.05C524.731 553.362 524.699 554.23 524.699 554.657C524.699 557.279 524.994 559.066 525.584 560.017C526.207 560.935 527.19 561.394 528.534 561.394C529.518 561.394 530.419 561.213 531.239 560.853C532.059 560.492 532.993 559.918 534.042 559.132L535.124 561.935ZM551.253 564.492C547.909 564.492 545.238 563.475 543.238 561.443C541.271 559.41 540.287 556.542 540.287 552.837C540.287 550.378 540.746 548.264 541.664 546.494C542.582 544.69 543.812 543.33 545.352 542.412C546.926 541.461 548.68 540.986 550.614 540.986C553.335 540.986 555.532 541.887 557.204 543.691C558.908 545.494 559.761 548.149 559.761 551.657C559.761 552.018 559.728 552.558 559.662 553.28H543.68C543.812 556.034 544.582 558.115 545.992 559.525C547.401 560.935 549.188 561.64 551.352 561.64C553.712 561.64 555.646 560.804 557.154 559.132L559.122 561.049C557.22 563.344 554.597 564.492 551.253 564.492ZM556.171 550.526C556.171 548.428 555.63 546.772 554.548 545.559C553.499 544.313 552.106 543.691 550.368 543.691C548.729 543.691 547.303 544.264 546.09 545.412C544.877 546.559 544.123 548.264 543.828 550.526H556.171ZM579.038 540.986C581.431 540.986 583.414 541.805 584.988 543.445L583.414 546.198L583.218 546.641L582.873 546.444C582.775 546.084 582.66 545.805 582.529 545.608C582.398 545.379 582.119 545.133 581.693 544.871C580.841 544.313 579.874 544.035 578.792 544.035C577.612 544.035 576.497 544.33 575.448 544.92C574.399 545.51 573.546 546.412 572.891 547.625C572.235 548.805 571.907 550.296 571.907 552.1V564.049H568.317V541.527H572.006L571.907 545.658C572.53 544.182 573.481 543.035 574.759 542.215C576.071 541.396 577.497 540.986 579.038 540.986ZM595.02 544.33H590.151V541.527H595.02V539.658C595.02 536.773 595.757 534.609 597.233 533.167C598.741 531.724 600.757 531.003 603.281 531.003C604.724 531.003 606.051 531.265 607.264 531.79C608.51 532.315 609.526 533.085 610.313 534.101L608.445 536.708L608.15 537.101L607.854 536.904C607.854 536.839 607.822 536.708 607.756 536.511C607.723 536.281 607.641 536.052 607.51 535.822C607.379 535.593 607.182 535.363 606.92 535.134C606.428 534.675 605.92 534.347 605.396 534.15C604.871 533.954 604.199 533.855 603.38 533.855C601.839 533.855 600.626 534.314 599.741 535.232C598.855 536.15 598.413 537.626 598.413 539.658V541.527H605.789V544.33H598.413V564H595.02V544.33ZM623.64 541.035C626.853 541.035 629.295 541.871 630.967 543.543C632.672 545.215 633.524 548.051 633.524 552.05V564H629.688V560.558C628.311 563.213 625.754 564.541 622.017 564.541C619.525 564.541 617.575 563.984 616.165 562.869C614.755 561.722 614.051 560.213 614.051 558.345C614.051 556.771 614.559 555.394 615.575 554.214C616.591 553.034 617.952 552.132 619.657 551.509C621.394 550.854 623.296 550.526 625.361 550.526C627.23 550.526 628.918 550.624 630.426 550.821C630.229 548.297 629.557 546.526 628.41 545.51C627.295 544.461 625.623 543.936 623.394 543.936C622.279 543.936 621.197 544.149 620.148 544.576C619.132 545.002 618.198 545.625 617.345 546.444L615.624 544.182C617.722 542.084 620.394 541.035 623.64 541.035ZM622.361 561.836C624.787 561.836 626.705 561.131 628.115 559.722C629.524 558.279 630.295 556.214 630.426 553.526C628.951 553.296 627.361 553.181 625.656 553.181C623.164 553.181 621.197 553.591 619.755 554.411C618.312 555.23 617.591 556.476 617.591 558.148C617.591 560.607 619.181 561.836 622.361 561.836ZM650.244 564.541C648.08 564.541 646.146 564.033 644.441 563.016C642.736 562 641.392 560.607 640.409 558.837C639.458 557.033 638.983 555.017 638.983 552.788C638.983 550.559 639.458 548.559 640.409 546.789C641.392 545.018 642.736 543.625 644.441 542.609C646.146 541.592 648.064 541.084 650.195 541.084C651.998 541.084 653.637 541.461 655.112 542.215C656.587 542.936 657.784 543.953 658.702 545.264L656.489 547.428L656.145 547.772L655.899 547.526C655.899 547.231 655.833 546.969 655.702 546.739C655.604 546.477 655.358 546.182 654.965 545.854C654.276 545.231 653.522 544.789 652.703 544.526C651.883 544.231 650.916 544.084 649.801 544.084C648.523 544.084 647.326 544.445 646.211 545.166C645.13 545.854 644.261 546.838 643.605 548.116C642.949 549.395 642.622 550.87 642.622 552.542C642.622 554.214 642.949 555.722 643.605 557.066C644.294 558.41 645.228 559.459 646.408 560.213C647.621 560.968 648.965 561.345 650.44 561.345C652.703 561.345 654.653 560.427 656.292 558.591L658.358 561C656.161 563.361 653.457 564.541 650.244 564.541ZM674.192 564.492C670.848 564.492 668.176 563.475 666.177 561.443C664.21 559.41 663.226 556.542 663.226 552.837C663.226 550.378 663.685 548.264 664.603 546.494C665.521 544.69 666.75 543.33 668.291 542.412C669.865 541.461 671.619 540.986 673.553 540.986C676.274 540.986 678.471 541.887 680.143 543.691C681.847 545.494 682.7 548.149 682.7 551.657C682.7 552.018 682.667 552.558 682.601 553.28H666.619C666.75 556.034 667.521 558.115 668.93 559.525C670.34 560.935 672.127 561.64 674.291 561.64C676.651 561.64 678.585 560.804 680.093 559.132L682.06 561.049C680.159 563.344 677.536 564.492 674.192 564.492ZM679.11 550.526C679.11 548.428 678.569 546.772 677.487 545.559C676.438 544.313 675.045 543.691 673.307 543.691C671.668 543.691 670.242 544.264 669.029 545.412C667.816 546.559 667.062 548.264 666.767 550.526H679.11ZM747.956 564.492C744.612 564.492 741.94 563.475 739.94 561.443C737.973 559.41 736.989 556.542 736.989 552.837C736.989 550.378 737.448 548.264 738.366 546.494C739.284 544.69 740.514 543.33 742.055 542.412C743.628 541.461 745.382 540.986 747.316 540.986C750.037 540.986 752.234 541.887 753.906 543.691C755.611 545.494 756.463 548.149 756.463 551.657C756.463 552.018 756.43 552.558 756.365 553.28H740.383C740.514 556.034 741.284 558.115 742.694 559.525C744.103 560.935 745.89 561.64 748.054 561.64C750.414 561.64 752.349 560.804 753.857 559.132L755.824 561.049C753.922 563.344 751.3 564.492 747.956 564.492ZM752.873 550.526C752.873 548.428 752.332 546.772 751.25 545.559C750.201 544.313 748.808 543.691 747.07 543.691C745.431 543.691 744.005 544.264 742.792 545.412C741.579 546.559 740.825 548.264 740.53 550.526H752.873ZM771.511 564.492C767.708 564.492 764.528 563.312 761.971 560.951L763.938 557.607L764.233 557.165L764.528 557.361C764.528 557.427 764.544 557.574 764.577 557.804C764.642 558.033 764.741 558.263 764.872 558.492C765.003 558.722 765.183 558.951 765.413 559.181C766.167 559.935 767.019 560.525 767.97 560.951C768.954 561.345 770.167 561.541 771.609 561.541C773.379 561.541 774.773 561.23 775.789 560.607C776.805 559.951 777.313 559.066 777.313 557.951C777.313 557.001 776.904 556.214 776.084 555.591C775.264 554.968 773.789 554.312 771.658 553.624C766.019 552.018 763.2 549.69 763.2 546.641C763.2 544.903 763.905 543.527 765.315 542.51C766.757 541.494 768.806 540.986 771.461 540.986C773.494 540.986 775.199 541.281 776.576 541.871C777.985 542.428 779.264 543.313 780.411 544.526L778.395 546.985L778.051 547.379L777.805 547.133C777.772 546.772 777.69 546.477 777.559 546.248C777.461 546.018 777.231 545.756 776.871 545.461C776.117 544.871 775.264 544.428 774.314 544.133C773.396 543.805 772.478 543.641 771.56 543.641C770.15 543.641 768.986 543.887 768.068 544.379C767.183 544.871 766.741 545.559 766.741 546.444C766.741 547.264 767.2 548.018 768.118 548.706C769.035 549.395 770.691 550.083 773.084 550.772C775.904 551.624 777.887 552.558 779.035 553.575C780.215 554.558 780.805 555.853 780.805 557.46C780.805 559.492 780.002 561.181 778.395 562.525C776.822 563.836 774.527 564.492 771.511 564.492ZM788.673 561.148H794.426V544.379H788.968V541.527H797.967V561.148H803.229V564H788.673V561.148ZM796 536.806C795.312 536.806 794.722 536.56 794.23 536.068C793.738 535.577 793.492 534.986 793.492 534.298C793.492 533.577 793.722 532.97 794.181 532.478C794.672 531.987 795.279 531.741 796 531.741C796.689 531.741 797.279 532.003 797.77 532.528C798.295 533.019 798.557 533.61 798.557 534.298C798.557 534.986 798.295 535.577 797.77 536.068C797.279 536.56 796.689 536.806 796 536.806ZM831.702 543.838C831.406 543.805 830.98 543.789 830.423 543.789C828.849 543.789 827.538 544.133 826.489 544.822C827.046 545.936 827.325 547.166 827.325 548.51C827.325 549.985 826.997 551.329 826.341 552.542C825.718 553.722 824.801 554.657 823.588 555.345C822.407 556.034 821.03 556.378 819.457 556.378C818.211 556.378 817.047 556.148 815.965 555.689C815.375 556.411 815.08 557.099 815.08 557.755C815.08 558.542 815.572 559.115 816.555 559.476C817.572 559.804 819.375 559.968 821.965 559.968C825.145 559.968 827.309 560.459 828.456 561.443C829.636 562.394 830.226 563.803 830.226 565.672C830.226 567.606 829.439 569.213 827.866 570.491C826.292 571.803 823.833 572.458 820.489 572.458C817.277 572.458 814.752 571.966 812.916 570.983C811.113 569.999 810.212 568.557 810.212 566.655C810.212 565.475 810.54 564.459 811.195 563.607C811.851 562.754 812.687 562.082 813.703 561.59C812.621 560.869 812.08 559.869 812.08 558.591C812.08 557.279 812.753 555.902 814.097 554.46C813.277 553.739 812.654 552.87 812.228 551.854C811.802 550.837 811.589 549.723 811.589 548.51C811.589 547.067 811.9 545.756 812.523 544.576C813.179 543.363 814.097 542.412 815.277 541.723C816.49 541.035 817.883 540.691 819.457 540.691C821.85 540.691 823.768 541.461 825.21 543.002C825.997 542.281 826.8 541.756 827.62 541.428C828.472 541.068 829.407 540.887 830.423 540.887L831.259 540.937L831.702 543.838ZM819.457 553.427C820.867 553.427 822.03 552.952 822.948 552.001C823.899 551.05 824.374 549.887 824.374 548.51C824.374 547.133 823.899 545.969 822.948 545.018C822.03 544.068 820.867 543.592 819.457 543.592C818.047 543.592 816.867 544.068 815.916 545.018C814.998 545.969 814.539 547.133 814.539 548.51C814.539 549.887 814.998 551.05 815.916 552.001C816.867 552.952 818.047 553.427 819.457 553.427ZM826.981 566.213C826.981 565.426 826.833 564.803 826.538 564.344C826.276 563.918 825.735 563.607 824.915 563.41C824.096 563.18 822.866 563.066 821.227 563.066C818.867 563.066 816.982 562.853 815.572 562.426C814.785 562.951 814.228 563.492 813.9 564.049C813.605 564.606 813.457 565.344 813.457 566.262C813.457 567.377 814.08 568.245 815.326 568.868C816.572 569.491 818.309 569.803 820.539 569.803C822.702 569.803 824.309 569.475 825.358 568.819C826.44 568.196 826.981 567.328 826.981 566.213ZM836.472 541.527H839.914V545.51C840.799 544.133 841.914 543.035 843.258 542.215C844.602 541.396 846.028 540.986 847.536 540.986C849.536 540.986 851.126 541.756 852.306 543.297C853.519 544.805 854.126 547.166 854.126 550.378V564H850.683V550.477C850.683 548.247 850.306 546.625 849.552 545.608C848.798 544.592 847.798 544.084 846.553 544.084C845.536 544.084 844.504 544.379 843.454 544.969C842.438 545.559 841.586 546.395 840.897 547.477C840.242 548.526 839.914 549.723 839.914 551.067V564H836.472V541.527ZM910.235 541.527H913.677V545.51C914.562 544.133 915.677 543.035 917.021 542.215C918.365 541.396 919.791 540.986 921.299 540.986C923.299 540.986 924.889 541.756 926.069 543.297C927.282 544.805 927.889 547.166 927.889 550.378V564H924.447V550.477C924.447 548.247 924.07 546.625 923.316 545.608C922.562 544.592 921.562 544.084 920.316 544.084C919.3 544.084 918.267 544.379 917.218 544.969C916.201 545.559 915.349 546.395 914.661 547.477C914.005 548.526 913.677 549.723 913.677 551.067V564H910.235V541.527ZM953.116 561.935C950.952 563.541 948.575 564.344 945.985 564.344C943.494 564.344 941.724 563.59 940.675 562.082C939.658 560.574 939.15 558.115 939.15 554.706C939.15 554.149 939.183 553.181 939.248 551.804L939.691 544.428H934.724V541.527H939.888L940.232 535.527L944.166 534.888L944.658 534.839L944.707 535.134C944.477 535.462 944.297 535.74 944.166 535.97C944.068 536.199 944.002 536.56 943.969 537.052L943.428 541.527H950.903V544.428H943.232L942.789 552.05C942.723 553.362 942.691 554.23 942.691 554.657C942.691 557.279 942.986 559.066 943.576 560.017C944.199 560.935 945.182 561.394 946.526 561.394C947.51 561.394 948.411 561.213 949.231 560.853C950.051 560.492 950.985 559.918 952.034 559.132L953.116 561.935ZM969.245 564.492C965.902 564.492 963.23 563.475 961.23 561.443C959.263 559.41 958.279 556.542 958.279 552.837C958.279 550.378 958.738 548.264 959.656 546.494C960.574 544.69 961.804 543.33 963.344 542.412C964.918 541.461 966.672 540.986 968.606 540.986C971.327 540.986 973.524 541.887 975.196 543.691C976.9 545.494 977.753 548.149 977.753 551.657C977.753 552.018 977.72 552.558 977.655 553.28H961.672C961.804 556.034 962.574 558.115 963.984 559.525C965.393 560.935 967.18 561.64 969.344 561.64C971.704 561.64 973.639 560.804 975.147 559.132L977.114 561.049C975.212 563.344 972.589 564.492 969.245 564.492ZM974.163 550.526C974.163 548.428 973.622 546.772 972.54 545.559C971.491 544.313 970.098 543.691 968.36 543.691C966.721 543.691 965.295 544.264 964.082 545.412C962.869 546.559 962.115 548.264 961.82 550.526H974.163ZM997.03 540.986C999.423 540.986 1001.41 541.805 1002.98 543.445L1001.41 546.198L1001.21 546.641L1000.87 546.444C1000.77 546.084 1000.65 545.805 1000.52 545.608C1000.39 545.379 1000.11 545.133 999.685 544.871C998.833 544.313 997.866 544.035 996.784 544.035C995.604 544.035 994.489 544.33 993.44 544.92C992.391 545.51 991.538 546.412 990.883 547.625C990.227 548.805 989.899 550.296 989.899 552.1V564.049H986.309V541.527H989.998L989.899 545.658C990.522 544.182 991.473 543.035 992.751 542.215C994.063 541.396 995.489 540.986 997.03 540.986ZM1008 541.527H1011.59V545.953C1012.08 544.313 1012.93 543.084 1014.14 542.264C1015.36 541.445 1016.78 541.035 1018.42 541.035C1020.13 541.035 1021.68 541.478 1023.09 542.363C1024.54 543.215 1025.68 544.51 1026.53 546.248C1027.39 547.985 1027.81 550.1 1027.81 552.591C1027.81 555.116 1027.37 557.296 1026.49 559.132C1025.6 560.935 1024.42 562.295 1022.95 563.213C1021.5 564.131 1019.96 564.59 1018.32 564.59C1016.98 564.59 1015.72 564.279 1014.54 563.656C1013.36 563.033 1012.39 562.164 1011.63 561.049V572.212H1008V541.527ZM1017.73 561.443C1019.54 561.443 1021.04 560.771 1022.26 559.427C1023.5 558.05 1024.13 555.82 1024.13 552.739C1024.13 549.952 1023.58 547.821 1022.5 546.346C1021.42 544.838 1019.88 544.084 1017.88 544.084C1016.01 544.084 1014.49 544.871 1013.31 546.444C1012.16 547.985 1011.59 550.346 1011.59 553.526C1011.65 556.116 1012.22 558.083 1013.31 559.427C1014.39 560.771 1015.86 561.443 1017.73 561.443ZM1046.21 540.986C1048.6 540.986 1050.58 541.805 1052.16 543.445L1050.58 546.198L1050.39 546.641L1050.04 546.444C1049.94 546.084 1049.83 545.805 1049.7 545.608C1049.57 545.379 1049.29 545.133 1048.86 544.871C1048.01 544.313 1047.04 544.035 1045.96 544.035C1044.78 544.035 1043.66 544.33 1042.62 544.92C1041.57 545.51 1040.71 546.412 1040.06 547.625C1039.4 548.805 1039.07 550.296 1039.07 552.1V564.049H1035.48V541.527H1039.17L1039.07 545.658C1039.7 544.182 1040.65 543.035 1041.93 542.215C1043.24 541.396 1044.66 540.986 1046.21 540.986ZM1059.14 561.148H1064.89V544.379H1059.43V541.527H1068.43V561.148H1073.69V564H1059.14V561.148ZM1066.47 536.806C1065.78 536.806 1065.19 536.56 1064.7 536.068C1064.2 535.577 1063.96 534.986 1063.96 534.298C1063.96 533.577 1064.19 532.97 1064.65 532.478C1065.14 531.987 1065.74 531.741 1066.47 531.741C1067.15 531.741 1067.74 532.003 1068.24 532.528C1068.76 533.019 1069.02 533.61 1069.02 534.298C1069.02 534.986 1068.76 535.577 1068.24 536.068C1067.74 536.56 1067.15 536.806 1066.47 536.806ZM1091.15 564.492C1087.35 564.492 1084.17 563.312 1081.61 560.951L1083.58 557.607L1083.87 557.165L1084.17 557.361C1084.17 557.427 1084.19 557.574 1084.22 557.804C1084.28 558.033 1084.38 558.263 1084.51 558.492C1084.64 558.722 1084.82 558.951 1085.05 559.181C1085.81 559.935 1086.66 560.525 1087.61 560.951C1088.59 561.345 1089.81 561.541 1091.25 561.541C1093.02 561.541 1094.41 561.23 1095.43 560.607C1096.45 559.951 1096.95 559.066 1096.95 557.951C1096.95 557.001 1096.54 556.214 1095.72 555.591C1094.91 554.968 1093.43 554.312 1091.3 553.624C1085.66 552.018 1082.84 549.69 1082.84 546.641C1082.84 544.903 1083.55 543.527 1084.96 542.51C1086.4 541.494 1088.45 540.986 1091.1 540.986C1093.14 540.986 1094.84 541.281 1096.22 541.871C1097.63 542.428 1098.9 543.313 1100.05 544.526L1098.04 546.985L1097.69 547.379L1097.45 547.133C1097.41 546.772 1097.33 546.477 1097.2 546.248C1097.1 546.018 1096.87 545.756 1096.51 545.461C1095.76 544.871 1094.91 544.428 1093.95 544.133C1093.04 543.805 1092.12 543.641 1091.2 543.641C1089.79 543.641 1088.63 543.887 1087.71 544.379C1086.82 544.871 1086.38 545.559 1086.38 546.444C1086.38 547.264 1086.84 548.018 1087.76 548.706C1088.68 549.395 1090.33 550.083 1092.73 550.772C1095.54 551.624 1097.53 552.558 1098.68 553.575C1099.86 554.558 1100.45 555.853 1100.45 557.46C1100.45 559.492 1099.64 561.181 1098.04 562.525C1096.46 563.836 1094.17 564.492 1091.15 564.492ZM1116.77 564.492C1113.43 564.492 1110.76 563.475 1108.76 561.443C1106.79 559.41 1105.81 556.542 1105.81 552.837C1105.81 550.378 1106.26 548.264 1107.18 546.494C1108.1 544.69 1109.33 543.33 1110.87 542.412C1112.44 541.461 1114.2 540.986 1116.13 540.986C1118.85 540.986 1121.05 541.887 1122.72 543.691C1124.43 545.494 1125.28 548.149 1125.28 551.657C1125.28 552.018 1125.25 552.558 1125.18 553.28H1109.2C1109.33 556.034 1110.1 558.115 1111.51 559.525C1112.92 560.935 1114.71 561.64 1116.87 561.64C1119.23 561.64 1121.17 560.804 1122.67 559.132L1124.64 561.049C1122.74 563.344 1120.12 564.492 1116.77 564.492ZM1121.69 550.526C1121.69 548.428 1121.15 546.772 1120.07 545.559C1119.02 544.313 1117.62 543.691 1115.89 543.691C1114.25 543.691 1112.82 544.264 1111.61 545.412C1110.4 546.559 1109.64 548.264 1109.35 550.526H1121.69Z" fill="#69657F"/>
</g>
<g id="Logo_2">
<path id="Vector_5" d="M229.575 138.259C260.157 138.259 285 114.724 285 85.6296C285 56.5355 260.157 33 229.575 33C198.994 33 174.151 56.5355 174.151 85.6296C174.151 114.724 198.994 138.259 229.575 138.259Z" fill="#25292C" stroke="#6270FF" stroke-width="1.34634"/>
<path id="Vector_6" d="M208.613 59.1557L207.92 112.791" stroke="url(#paint2_linear)" stroke-width="1.34634" stroke-linecap="square"/>
<path id="Vector_7" d="M249.168 59.1557L248.474 112.791" stroke="url(#paint3_linear)" stroke-width="1.34634" stroke-linecap="square"/>
<path id="Vector_8" d="M207.946 84.6239H248.501" stroke="#5A4ED2" stroke-width="1.34634"/>
</g>
<g id="Humane Interface Design Enterprise_2">
<path d="M66.9559 60.0028H68.5236V60.1366C68.4472 60.2131 68.3962 60.2959 68.3707 60.3852C68.3579 60.4744 68.3516 60.6273 68.3516 60.844V65.0883H73.0165V60.0028H74.5842V60.1366C74.5077 60.2131 74.4567 60.2959 74.4312 60.3852C74.4185 60.4744 74.4121 60.6273 74.4121 60.844V71.9136H72.9973V66.2354H68.3516V71.9136H66.9559V60.0028ZM67.5486 90.7856H69.9002V81.1308H67.6824V80.0028H73.59V81.1308H71.2385V90.8047H73.7047V91.9136H67.5486V90.7856ZM67.0324 101.003H69.8046C70.786 101.003 71.5635 101.137 72.137 101.404C72.7106 101.659 73.2077 102.067 73.6283 102.628C74.4057 103.673 74.7945 105.139 74.7945 107.025C74.718 108.95 74.2719 110.422 73.4562 111.441C72.6405 112.448 71.3468 112.945 69.5751 112.933H67.0324V101.003ZM69.5178 111.881C72.1434 111.881 73.4562 110.288 73.4562 107.102C73.4434 105.483 73.1439 104.253 72.5576 103.412C71.9713 102.558 71.0281 102.131 69.7281 102.131H68.2942V111.881H69.5178ZM67.128 120.984H74.4312V122.169H68.3898V126.088H73.3797V127.312H68.3898V131.728H74.3739V132.914H67.128V120.984Z" fill="#7D6DDE"/>
<path d="M79.7844 72.1239C78.8667 72.1239 78.1338 71.7861 77.5858 71.1106C77.0377 70.4223 76.7701 69.4027 76.7828 68.0516L76.8019 63.1764H78.1402V68.0516C78.1402 69.0968 78.3186 69.8552 78.6755 70.3267C79.0451 70.7856 79.5295 71.015 80.1285 71.015C80.7913 71.015 81.3457 70.7601 81.7918 70.2503C82.2507 69.7277 82.4801 68.9757 82.4801 67.9943V63.1764H83.8184V70.5562C83.8184 70.8621 83.8248 71.117 83.8375 71.3209C83.863 71.5121 83.9204 71.7096 84.0096 71.9136H82.6904C82.6012 71.7224 82.5438 71.5248 82.5183 71.3209C82.5056 71.117 82.4992 70.8684 82.4992 70.5753C82.2188 71.0596 81.8364 71.442 81.3521 71.7224C80.8805 71.99 80.3579 72.1239 79.7844 72.1239ZM85.8449 63.1764H87.1068V64.0368C87.3107 63.7181 87.572 63.4632 87.8906 63.272C88.2093 63.0681 88.5406 62.9661 88.8848 62.9661C89.2671 62.9661 89.5985 63.0872 89.8789 63.3294C90.1721 63.5716 90.3569 63.8775 90.4334 64.2471C90.5991 63.8647 90.8603 63.5588 91.2172 63.3294C91.5741 63.0872 91.9692 62.9661 92.4026 62.9661C92.9761 62.9661 93.4031 63.1764 93.6835 63.5971C93.9766 64.0049 94.1105 64.5402 94.085 65.203V71.9136H92.8232V65.7192C92.8232 64.9927 92.7531 64.5211 92.6129 64.3044C92.4727 64.0878 92.2687 63.9794 92.0011 63.9794C91.7717 63.9794 91.5486 64.0878 91.3319 64.3044C91.1153 64.5211 90.9368 64.8015 90.7966 65.1456C90.6692 65.477 90.6054 65.8084 90.6054 66.1398V71.9136H89.3245V65.8339C89.3245 65.1202 89.2544 64.6422 89.1142 64.4C88.9867 64.1451 88.7382 64.0177 88.3686 64.0177C88.1774 64.0177 87.9798 64.1069 87.7759 64.2853C87.5847 64.451 87.4254 64.6932 87.2979 65.0118C87.1705 65.3177 87.1068 65.6746 87.1068 66.0825V71.9136H85.8449V63.1764ZM99.3426 62.9853C100.592 62.9853 101.541 63.3103 102.191 63.9603C102.854 64.6103 103.185 65.7128 103.185 67.2678V71.9136H101.694V70.5753C101.159 71.6077 100.165 72.1239 98.7116 72.1239C97.743 72.1239 96.9846 71.9072 96.4366 71.4739C95.8885 71.0278 95.6145 70.4415 95.6145 69.715C95.6145 69.1032 95.812 68.5678 96.2071 68.109C96.6022 67.6502 97.1312 67.2997 97.794 67.0575C98.4695 66.8026 99.2087 66.6751 100.012 66.6751C100.738 66.6751 101.395 66.7134 101.981 66.7898C101.904 65.8084 101.643 65.1202 101.197 64.725C100.764 64.3172 100.114 64.1133 99.247 64.1133C98.8136 64.1133 98.393 64.1961 97.9851 64.3618C97.59 64.5275 97.2268 64.7697 96.8954 65.0883L96.2263 64.2088C97.042 63.3931 98.0807 62.9853 99.3426 62.9853ZM98.8455 71.0724C99.7887 71.0724 100.534 70.7983 101.082 70.2503C101.63 69.6895 101.93 68.8865 101.981 67.8413C101.407 67.7521 100.789 67.7075 100.126 67.7075C99.1577 67.7075 98.393 67.8668 97.8322 68.1855C97.2714 68.5041 96.991 68.9885 96.991 69.6385C96.991 70.5944 97.6092 71.0724 98.8455 71.0724ZM105.613 63.1764H106.952V64.725C107.296 64.1897 107.729 63.7627 108.252 63.4441C108.774 63.1255 109.329 62.9661 109.915 62.9661C110.693 62.9661 111.311 63.2657 111.77 63.8647C112.241 64.451 112.477 65.3687 112.477 66.6178V71.9136H111.139V66.656C111.139 65.7893 110.992 65.1584 110.699 64.7633C110.406 64.3682 110.017 64.1706 109.533 64.1706C109.138 64.1706 108.736 64.2853 108.328 64.5147C107.933 64.7442 107.602 65.0692 107.334 65.4898C107.079 65.8976 106.952 66.3629 106.952 66.8854V71.9136H105.613V63.1764ZM118.996 72.1048C117.696 72.1048 116.657 71.7096 115.88 70.9194C115.115 70.1292 114.733 69.0139 114.733 67.5737C114.733 66.6178 114.911 65.7957 115.268 65.1074C115.625 64.4064 116.103 63.8775 116.702 63.5206C117.314 63.151 117.996 62.9661 118.748 62.9661C119.806 62.9661 120.66 63.3166 121.31 64.0177C121.972 64.7187 122.304 65.7511 122.304 67.1148C122.304 67.255 122.291 67.4654 122.266 67.7458H116.052C116.103 68.8164 116.403 69.6257 116.951 70.1738C117.499 70.7219 118.193 70.9959 119.035 70.9959C119.952 70.9959 120.704 70.6709 121.291 70.0208L122.055 70.7665C121.316 71.6587 120.296 72.1048 118.996 72.1048ZM120.908 66.6751C120.908 65.8594 120.698 65.2157 120.277 64.7442C119.869 64.2598 119.328 64.0177 118.652 64.0177C118.015 64.0177 117.46 64.2407 116.989 64.6868C116.517 65.1329 116.224 65.7957 116.109 66.6751H120.908ZM76.9357 83.1764H78.274V84.725C78.6182 84.1897 79.0515 83.7627 79.5741 83.4441C80.0967 83.1255 80.6511 82.9661 81.2374 82.9661C82.0149 82.9661 82.633 83.2657 83.0919 83.8647C83.5635 84.451 83.7993 85.3687 83.7993 86.6178V91.9136H82.461V86.656C82.461 85.7893 82.3144 85.1584 82.0213 84.7633C81.7281 84.3682 81.3394 84.1706 80.855 84.1706C80.4599 84.1706 80.0584 84.2853 79.6506 84.5147C79.2555 84.7442 78.9241 85.0692 78.6564 85.4898C78.4015 85.8976 78.274 86.3629 78.274 86.8854V91.9136H76.9357V83.1764ZM93.607 91.1106C92.7658 91.7351 91.8418 92.0474 90.8349 92.0474C89.8662 92.0474 89.1779 91.7543 88.7701 91.168C88.3749 90.5817 88.1774 89.6257 88.1774 88.3002C88.1774 88.0835 88.1901 87.7075 88.2156 87.1722L88.3877 84.3044H86.4567V83.1764H88.4642L88.598 80.844L90.1275 80.5955L90.3187 80.5763L90.3378 80.6911C90.2486 80.8185 90.1785 80.9268 90.1275 81.0161C90.0892 81.1053 90.0637 81.2455 90.051 81.4367L89.8407 83.1764H92.7467V84.3044H89.7642L89.5922 87.2678C89.5667 87.7776 89.5539 88.1154 89.5539 88.2811C89.5539 89.3007 89.6686 89.9954 89.898 90.365C90.1402 90.7219 90.5226 90.9003 91.0452 90.9003C91.4275 90.9003 91.778 90.8302 92.0967 90.69C92.4153 90.5498 92.7786 90.3267 93.1864 90.0208L93.607 91.1106ZM99.8779 92.1048C98.5778 92.1048 97.5391 91.7096 96.7616 90.9194C95.9968 90.1292 95.6145 89.0139 95.6145 87.5737C95.6145 86.6178 95.7929 85.7957 96.1498 85.1074C96.5067 84.4064 96.9846 83.8775 97.5837 83.5206C98.1955 83.151 98.8773 82.9661 99.6293 82.9661C100.687 82.9661 101.541 83.3166 102.191 84.0177C102.854 84.7187 103.185 85.7511 103.185 87.1148C103.185 87.255 103.173 87.4654 103.147 87.7458H96.9336C96.9846 88.8164 97.2841 89.6257 97.8322 90.1738C98.3803 90.7219 99.0749 90.9959 99.9161 90.9959C100.834 90.9959 101.586 90.6709 102.172 90.0208L102.937 90.7665C102.198 91.6587 101.178 92.1048 99.8779 92.1048ZM101.79 86.6751C101.79 85.8594 101.579 85.2157 101.159 84.7442C100.751 84.2598 100.209 84.0177 99.5337 84.0177C98.8965 84.0177 98.342 84.2407 97.8704 84.6868C97.3988 85.1329 97.1057 85.7957 96.991 86.6751H101.79ZM110.68 82.9661C111.61 82.9661 112.381 83.2848 112.993 83.9221L112.381 84.9927L112.305 85.1648L112.171 85.0883C112.133 84.9481 112.088 84.8398 112.037 84.7633C111.986 84.6741 111.878 84.5785 111.712 84.4765C111.381 84.2598 111.005 84.1515 110.584 84.1515C110.125 84.1515 109.692 84.2662 109.284 84.4956C108.876 84.725 108.545 85.0755 108.29 85.5471C108.035 86.006 107.908 86.5859 107.908 87.2869V91.9327H106.512V83.1764H107.946L107.908 84.7824C108.15 84.2088 108.519 83.7627 109.016 83.4441C109.526 83.1255 110.081 82.9661 110.68 82.9661ZM116.893 84.2662H115.001V83.1764H116.893V82.4499C116.893 81.3283 117.18 80.4871 117.754 79.9263C118.34 79.3655 119.124 79.0851 120.105 79.0851C120.666 79.0851 121.182 79.1871 121.654 79.391C122.138 79.5949 122.533 79.8944 122.839 80.2896L122.113 81.3028L121.998 81.4558L121.883 81.3793C121.883 81.3538 121.87 81.3028 121.845 81.2264C121.832 81.1371 121.8 81.0479 121.749 80.9587C121.698 80.8695 121.622 80.7803 121.52 80.6911C121.329 80.5126 121.131 80.3852 120.927 80.3087C120.723 80.2322 120.462 80.194 120.143 80.194C119.544 80.194 119.073 80.3724 118.729 80.7293C118.385 81.0862 118.212 81.6597 118.212 82.4499V83.1764H121.08V84.2662H118.212V91.9136H116.893V84.2662ZM128.02 82.9853C129.269 82.9853 130.219 83.3103 130.869 83.9603C131.532 84.6103 131.863 85.7128 131.863 87.2678V91.9136H130.372V90.5753C129.836 91.6077 128.842 92.1239 127.389 92.1239C126.421 92.1239 125.662 91.9072 125.114 91.4739C124.566 91.0278 124.292 90.4415 124.292 89.715C124.292 89.1032 124.49 88.5678 124.885 88.109C125.28 87.6502 125.809 87.2997 126.472 87.0575C127.147 86.8026 127.886 86.6751 128.689 86.6751C129.416 86.6751 130.072 86.7134 130.659 86.7898C130.582 85.8084 130.321 85.1202 129.875 84.725C129.441 84.3172 128.791 84.1133 127.925 84.1133C127.491 84.1133 127.071 84.1961 126.663 84.3618C126.268 84.5275 125.904 84.7697 125.573 85.0883L124.904 84.2088C125.72 83.3931 126.758 82.9853 128.02 82.9853ZM127.523 91.0724C128.466 91.0724 129.212 90.7983 129.76 90.2503C130.308 89.6895 130.608 88.8865 130.659 87.8413C130.085 87.7521 129.467 87.7075 128.804 87.7075C127.835 87.7075 127.071 87.8668 126.51 88.1855C125.949 88.5041 125.669 88.9885 125.669 89.6385C125.669 90.5944 126.287 91.0724 127.523 91.0724ZM138.363 92.1239C137.522 92.1239 136.77 91.9263 136.107 91.5312C135.445 91.1361 134.922 90.5944 134.54 89.9061C134.17 89.2051 133.985 88.4213 133.985 87.5546C133.985 86.6879 134.17 85.9104 134.54 85.2221C134.922 84.5339 135.445 83.9922 136.107 83.5971C136.77 83.2019 137.516 83.0044 138.344 83.0044C139.045 83.0044 139.682 83.151 140.256 83.4441C140.83 83.7245 141.295 84.1196 141.652 84.6294L140.791 85.4707L140.658 85.6045L140.562 85.5089C140.562 85.3942 140.536 85.2922 140.485 85.203C140.447 85.101 140.352 84.9863 140.199 84.8589C139.931 84.6167 139.638 84.4446 139.319 84.3427C139.001 84.228 138.625 84.1706 138.191 84.1706C137.694 84.1706 137.229 84.3108 136.796 84.5912C136.375 84.8589 136.037 85.2412 135.782 85.7383C135.527 86.2354 135.4 86.809 135.4 87.459C135.4 88.109 135.527 88.6953 135.782 89.2179C136.05 89.7404 136.413 90.1483 136.872 90.4415C137.344 90.7346 137.866 90.8812 138.44 90.8812C139.319 90.8812 140.078 90.5243 140.715 89.8105L141.518 90.7473C140.664 91.665 139.612 92.1239 138.363 92.1239ZM147.674 92.1048C146.374 92.1048 145.335 91.7096 144.558 90.9194C143.793 90.1292 143.411 89.0139 143.411 87.5737C143.411 86.6178 143.589 85.7957 143.946 85.1074C144.303 84.4064 144.781 83.8775 145.38 83.5206C145.992 83.151 146.673 82.9661 147.425 82.9661C148.483 82.9661 149.337 83.3166 149.987 84.0177C150.65 84.7187 150.981 85.7511 150.981 87.1148C150.981 87.255 150.969 87.4654 150.943 87.7458H144.73C144.781 88.8164 145.08 89.6257 145.628 90.1738C146.176 90.7219 146.871 90.9959 147.712 90.9959C148.63 90.9959 149.382 90.6709 149.968 90.0208L150.733 90.7665C149.994 91.6587 148.974 92.1048 147.674 92.1048ZM149.586 86.6751C149.586 85.8594 149.376 85.2157 148.955 84.7442C148.547 84.2598 148.005 84.0177 147.33 84.0177C146.693 84.0177 146.138 84.2407 145.667 84.6868C145.195 85.1329 144.902 85.7957 144.787 86.6751H149.586ZM80.7594 113.105C79.4594 113.105 78.4206 112.71 77.6431 111.919C76.8784 111.129 76.496 110.014 76.496 108.574C76.496 107.618 76.6745 106.796 77.0313 106.107C77.3882 105.406 77.8662 104.877 78.4652 104.521C79.077 104.151 79.7589 103.966 80.5109 103.966C81.5688 103.966 82.4227 104.317 83.0728 105.018C83.7355 105.719 84.0669 106.751 84.0669 108.115C84.0669 108.255 84.0542 108.465 84.0287 108.746H77.8152C77.8662 109.816 78.1657 110.626 78.7138 111.174C79.2618 111.722 79.9565 111.996 80.7977 111.996C81.7154 111.996 82.4673 111.671 83.0536 111.021L83.8184 111.766C83.0791 112.659 82.0595 113.105 80.7594 113.105ZM82.6713 107.675C82.6713 106.859 82.461 106.216 82.0404 105.744C81.6325 105.26 81.0908 105.018 80.4153 105.018C79.778 105.018 79.2236 105.241 78.752 105.687C78.2804 106.133 77.9873 106.796 77.8726 107.675H82.6713ZM89.9172 113.105C88.4387 113.105 87.2023 112.646 86.2082 111.728L86.9729 110.428L87.0876 110.256L87.2023 110.333C87.2023 110.358 87.2087 110.415 87.2215 110.505C87.247 110.594 87.2852 110.683 87.3362 110.772C87.3872 110.862 87.4573 110.951 87.5465 111.04C87.8396 111.333 88.171 111.563 88.5406 111.728C88.923 111.881 89.3946 111.958 89.9554 111.958C90.6437 111.958 91.1854 111.837 91.5805 111.594C91.9756 111.339 92.1731 110.995 92.1731 110.562C92.1731 110.192 92.0138 109.886 91.6952 109.644C91.3765 109.402 90.803 109.147 89.9745 108.88C87.7823 108.255 86.6862 107.35 86.6862 106.165C86.6862 105.489 86.9602 104.954 87.5082 104.559C88.0691 104.164 88.8657 103.966 89.898 103.966C90.6883 103.966 91.351 104.081 91.8864 104.31C92.4344 104.527 92.9315 104.871 93.3776 105.343L92.5937 106.299L92.4599 106.452L92.3643 106.356C92.3516 106.216 92.3197 106.101 92.2687 106.012C92.2305 105.923 92.1413 105.821 92.0011 105.706C91.7079 105.477 91.3765 105.304 91.0069 105.19C90.65 105.062 90.2932 104.999 89.9363 104.999C89.3882 104.999 88.9358 105.094 88.5789 105.285C88.2347 105.477 88.0627 105.744 88.0627 106.088C88.0627 106.407 88.2411 106.7 88.598 106.968C88.9549 107.235 89.5985 107.503 90.529 107.771C91.6251 108.102 92.3962 108.465 92.8423 108.86C93.3011 109.243 93.5306 109.746 93.5306 110.371C93.5306 111.161 93.2183 111.817 92.5937 112.34C91.982 112.85 91.0898 113.105 89.9172 113.105ZM96.5895 111.805H98.8264V105.285H96.7042V104.176H100.203V111.805H102.249V112.914H96.5895V111.805ZM99.4381 102.341C99.1705 102.341 98.9411 102.245 98.7499 102.054C98.5587 101.863 98.4631 101.634 98.4631 101.366C98.4631 101.086 98.5523 100.85 98.7308 100.659C98.922 100.467 99.1577 100.372 99.4381 100.372C99.7058 100.372 99.9352 100.474 100.126 100.678C100.33 100.869 100.432 101.098 100.432 101.366C100.432 101.634 100.33 101.863 100.126 102.054C99.9352 102.245 99.7058 102.341 99.4381 102.341ZM113.318 105.075C113.203 105.062 113.038 105.056 112.821 105.056C112.209 105.056 111.699 105.19 111.292 105.457C111.508 105.891 111.617 106.369 111.617 106.891C111.617 107.465 111.489 107.987 111.234 108.459C110.992 108.918 110.635 109.281 110.164 109.549C109.705 109.816 109.169 109.95 108.558 109.95C108.073 109.95 107.621 109.861 107.2 109.683C106.971 109.963 106.856 110.231 106.856 110.486C106.856 110.791 107.047 111.014 107.43 111.155C107.825 111.282 108.526 111.346 109.533 111.346C110.769 111.346 111.61 111.537 112.056 111.919C112.515 112.289 112.745 112.837 112.745 113.564C112.745 114.316 112.439 114.94 111.827 115.437C111.215 115.947 110.259 116.202 108.959 116.202C107.71 116.202 106.729 116.011 106.015 115.628C105.314 115.246 104.963 114.685 104.963 113.946C104.963 113.487 105.091 113.092 105.346 112.761C105.601 112.429 105.926 112.168 106.321 111.977C105.9 111.696 105.69 111.308 105.69 110.811C105.69 110.301 105.951 109.765 106.474 109.205C106.155 108.924 105.913 108.586 105.747 108.191C105.582 107.796 105.499 107.363 105.499 106.891C105.499 106.33 105.62 105.821 105.862 105.362C106.117 104.89 106.474 104.521 106.933 104.253C107.404 103.985 107.946 103.851 108.558 103.851C109.488 103.851 110.234 104.151 110.795 104.75C111.1 104.47 111.413 104.266 111.731 104.138C112.063 103.998 112.426 103.928 112.821 103.928L113.146 103.947L113.318 105.075ZM108.558 108.803C109.106 108.803 109.558 108.618 109.915 108.249C110.285 107.879 110.469 107.427 110.469 106.891C110.469 106.356 110.285 105.903 109.915 105.534C109.558 105.164 109.106 104.979 108.558 104.979C108.01 104.979 107.551 105.164 107.181 105.534C106.824 105.903 106.646 106.356 106.646 106.891C106.646 107.427 106.824 107.879 107.181 108.249C107.551 108.618 108.01 108.803 108.558 108.803ZM111.483 113.774C111.483 113.468 111.425 113.226 111.311 113.047C111.209 112.882 110.998 112.761 110.68 112.684C110.361 112.595 109.883 112.55 109.246 112.55C108.328 112.55 107.595 112.467 107.047 112.302C106.741 112.506 106.525 112.716 106.397 112.933C106.283 113.149 106.225 113.436 106.225 113.793C106.225 114.226 106.467 114.564 106.952 114.806C107.436 115.048 108.112 115.17 108.978 115.17C109.819 115.17 110.444 115.042 110.852 114.787C111.272 114.545 111.483 114.207 111.483 113.774ZM115.173 104.176H116.511V105.725C116.855 105.19 117.288 104.763 117.811 104.444C118.334 104.125 118.888 103.966 119.474 103.966C120.252 103.966 120.87 104.266 121.329 104.865C121.8 105.451 122.036 106.369 122.036 107.618V112.914H120.698V107.656C120.698 106.789 120.551 106.158 120.258 105.763C119.965 105.368 119.576 105.171 119.092 105.171C118.697 105.171 118.295 105.285 117.887 105.515C117.492 105.744 117.161 106.069 116.893 106.49C116.638 106.898 116.511 107.363 116.511 107.885V112.914H115.173V104.176ZM76.9357 124.176H78.274V125.725C78.6182 125.19 79.0515 124.763 79.5741 124.444C80.0967 124.125 80.6511 123.966 81.2374 123.966C82.0149 123.966 82.633 124.266 83.0919 124.865C83.5635 125.451 83.7993 126.369 83.7993 127.618V132.914H82.461V127.656C82.461 126.789 82.3144 126.158 82.0213 125.763C81.7281 125.368 81.3394 125.171 80.855 125.171C80.4599 125.171 80.0584 125.285 79.6506 125.515C79.2555 125.744 78.9241 126.069 78.6564 126.49C78.4015 126.898 78.274 127.363 78.274 127.885V132.914H76.9357V124.176ZM93.607 132.111C92.7658 132.735 91.8418 133.047 90.8349 133.047C89.8662 133.047 89.1779 132.754 88.7701 132.168C88.3749 131.582 88.1774 130.626 88.1774 129.3C88.1774 129.084 88.1901 128.708 88.2156 128.172L88.3877 125.304H86.4567V124.176H88.4642L88.598 121.844L90.1275 121.595L90.3187 121.576L90.3378 121.691C90.2486 121.819 90.1785 121.927 90.1275 122.016C90.0892 122.105 90.0637 122.245 90.051 122.437L89.8407 124.176H92.7467V125.304H89.7642L89.5922 128.268C89.5667 128.778 89.5539 129.115 89.5539 129.281C89.5539 130.301 89.6686 130.995 89.898 131.365C90.1402 131.722 90.5226 131.9 91.0452 131.9C91.4275 131.9 91.778 131.83 92.0967 131.69C92.4153 131.55 92.7786 131.327 93.1864 131.021L93.607 132.111ZM99.8779 133.105C98.5778 133.105 97.5391 132.71 96.7616 131.919C95.9968 131.129 95.6145 130.014 95.6145 128.574C95.6145 127.618 95.7929 126.796 96.1498 126.107C96.5067 125.406 96.9846 124.877 97.5837 124.521C98.1955 124.151 98.8773 123.966 99.6293 123.966C100.687 123.966 101.541 124.317 102.191 125.018C102.854 125.719 103.185 126.751 103.185 128.115C103.185 128.255 103.173 128.465 103.147 128.746H96.9336C96.9846 129.816 97.2841 130.626 97.8322 131.174C98.3803 131.722 99.0749 131.996 99.9161 131.996C100.834 131.996 101.586 131.671 102.172 131.021L102.937 131.766C102.198 132.659 101.178 133.105 99.8779 133.105ZM101.79 127.675C101.79 126.859 101.579 126.216 101.159 125.744C100.751 125.26 100.209 125.018 99.5337 125.018C98.8965 125.018 98.342 125.241 97.8704 125.687C97.3988 126.133 97.1057 126.796 96.991 127.675H101.79ZM110.68 123.966C111.61 123.966 112.381 124.285 112.993 124.922L112.381 125.993L112.305 126.165L112.171 126.088C112.133 125.948 112.088 125.84 112.037 125.763C111.986 125.674 111.878 125.578 111.712 125.477C111.381 125.26 111.005 125.151 110.584 125.151C110.125 125.151 109.692 125.266 109.284 125.496C108.876 125.725 108.545 126.076 108.29 126.547C108.035 127.006 107.908 127.586 107.908 128.287V132.933H106.512V124.176H107.946L107.908 125.782C108.15 125.209 108.519 124.763 109.016 124.444C109.526 124.125 110.081 123.966 110.68 123.966ZM114.943 124.176H116.339V125.897C116.53 125.26 116.861 124.782 117.333 124.463C117.805 124.145 118.359 123.985 118.996 123.985C119.659 123.985 120.265 124.157 120.813 124.501C121.373 124.833 121.819 125.336 122.151 126.012C122.482 126.687 122.648 127.509 122.648 128.478C122.648 129.46 122.476 130.307 122.132 131.021C121.788 131.722 121.329 132.251 120.755 132.608C120.194 132.965 119.595 133.143 118.958 133.143C118.436 133.143 117.945 133.022 117.486 132.78C117.027 132.538 116.651 132.2 116.358 131.766V136.106H114.943V124.176ZM118.729 131.919C119.43 131.919 120.016 131.658 120.488 131.136C120.972 130.6 121.214 129.734 121.214 128.535C121.214 127.452 121.004 126.624 120.583 126.05C120.163 125.464 119.563 125.171 118.786 125.171C118.06 125.171 117.467 125.477 117.008 126.088C116.562 126.687 116.339 127.605 116.339 128.841C116.364 129.848 116.587 130.613 117.008 131.136C117.429 131.658 118.002 131.919 118.729 131.919ZM129.798 123.966C130.729 123.966 131.5 124.285 132.112 124.922L131.5 125.993L131.423 126.165L131.289 126.088C131.251 125.948 131.207 125.84 131.156 125.763C131.105 125.674 130.996 125.578 130.831 125.477C130.499 125.26 130.123 125.151 129.703 125.151C129.244 125.151 128.81 125.266 128.403 125.496C127.995 125.725 127.663 126.076 127.408 126.547C127.154 127.006 127.026 127.586 127.026 128.287V132.933H125.63V124.176H127.064L127.026 125.782C127.268 125.209 127.638 124.763 128.135 124.444C128.645 124.125 129.199 123.966 129.798 123.966ZM134.826 131.805H137.063V125.285H134.941V124.176H138.44V131.805H140.485V132.914H134.826V131.805ZM137.675 122.341C137.407 122.341 137.178 122.245 136.987 122.054C136.796 121.863 136.7 121.634 136.7 121.366C136.7 121.086 136.789 120.85 136.968 120.659C137.159 120.467 137.395 120.372 137.675 120.372C137.943 120.372 138.172 120.474 138.363 120.678C138.567 120.869 138.669 121.098 138.669 121.366C138.669 121.634 138.567 121.863 138.363 122.054C138.172 122.245 137.943 122.341 137.675 122.341ZM147.272 133.105C145.794 133.105 144.558 132.646 143.564 131.728L144.328 130.428L144.443 130.256L144.558 130.333C144.558 130.358 144.564 130.415 144.577 130.505C144.602 130.594 144.641 130.683 144.691 130.772C144.742 130.862 144.813 130.951 144.902 131.04C145.195 131.333 145.526 131.563 145.896 131.728C146.278 131.881 146.75 131.958 147.311 131.958C147.999 131.958 148.541 131.837 148.936 131.594C149.331 131.339 149.528 130.995 149.528 130.562C149.528 130.192 149.369 129.886 149.05 129.644C148.732 129.402 148.158 129.147 147.33 128.88C145.138 128.255 144.041 127.35 144.041 126.165C144.041 125.489 144.315 124.954 144.864 124.559C145.424 124.164 146.221 123.966 147.253 123.966C148.044 123.966 148.706 124.081 149.242 124.31C149.79 124.527 150.287 124.871 150.733 125.343L149.949 126.299L149.815 126.452L149.72 126.356C149.707 126.216 149.675 126.101 149.624 126.012C149.586 125.923 149.497 125.821 149.356 125.706C149.063 125.477 148.732 125.304 148.362 125.19C148.005 125.062 147.648 124.999 147.292 124.999C146.744 124.999 146.291 125.094 145.934 125.285C145.59 125.477 145.418 125.744 145.418 126.088C145.418 126.407 145.596 126.7 145.953 126.968C146.31 127.235 146.954 127.503 147.884 127.771C148.98 128.102 149.752 128.465 150.198 128.86C150.656 129.243 150.886 129.746 150.886 130.371C150.886 131.161 150.574 131.817 149.949 132.34C149.337 132.85 148.445 133.105 147.272 133.105ZM157.233 133.105C155.933 133.105 154.894 132.71 154.117 131.919C153.352 131.129 152.97 130.014 152.97 128.574C152.97 127.618 153.148 126.796 153.505 126.107C153.862 125.406 154.34 124.877 154.939 124.521C155.551 124.151 156.233 123.966 156.985 123.966C158.043 123.966 158.896 124.317 159.547 125.018C160.209 125.719 160.541 126.751 160.541 128.115C160.541 128.255 160.528 128.465 160.502 128.746H154.289C154.34 129.816 154.639 130.626 155.188 131.174C155.736 131.722 156.43 131.996 157.271 131.996C158.189 131.996 158.941 131.671 159.527 131.021L160.292 131.766C159.553 132.659 158.533 133.105 157.233 133.105ZM159.145 127.675C159.145 126.859 158.935 126.216 158.514 125.744C158.106 125.26 157.565 125.018 156.889 125.018C156.252 125.018 155.697 125.241 155.226 125.687C154.754 126.133 154.461 126.796 154.346 127.675H159.145Z" fill="#69657F"/>
</g>
</g>
<defs>
<filter id="filter0_d" x="1010" y="-13.0497" width="639.883" height="340.432" filterUnits="userSpaceOnUse" color-interpolation-filters="sRGB">
<feFlood flood-opacity="0" result="BackgroundImageFix"/>
<feColorMatrix in="SourceAlpha" type="matrix" values="0 0 0 0 0 0 0 0 0 0 0 0 0 0 0 0 0 0 127 0"/>
<feOffset dy="4"/>
<feGaussianBlur stdDeviation="2"/>
<feColorMatrix type="matrix" values="0 0 0 0 0 0 0 0 0 0 0 0 0 0 0 0 0 0 0.25 0"/>
<feBlend mode="normal" in2="BackgroundImageFix" result="effect1_dropShadow"/>
<feBlend mode="normal" in="SourceGraphic" in2="effect1_dropShadow" result="shape"/>
</filter>
<filter id="filter1_d" x="1030.99" y="4.92352" width="388.073" height="314.102" filterUnits="userSpaceOnUse" color-interpolation-filters="sRGB">
<feFlood flood-opacity="0" result="BackgroundImageFix"/>
<feColorMatrix in="SourceAlpha" type="matrix" values="0 0 0 0 0 0 0 0 0 0 0 0 0 0 0 0 0 0 127 0"/>
<feOffset dy="4"/>
<feGaussianBlur stdDeviation="2"/>
<feColorMatrix type="matrix" values="0 0 0 0 0 0 0 0 0 0 0 0 0 0 0 0 0 0 0.25 0"/>
<feBlend mode="normal" in2="BackgroundImageFix" result="effect1_dropShadow"/>
<feBlend mode="normal" in="SourceGraphic" in2="effect1_dropShadow" result="shape"/>
</filter>
<filter id="filter2_d" x="-215" y="685.922" width="639.883" height="368.462" filterUnits="userSpaceOnUse" color-interpolation-filters="sRGB">
<feFlood flood-opacity="0" result="BackgroundImageFix"/>
<feColorMatrix in="SourceAlpha" type="matrix" values="0 0 0 0 0 0 0 0 0 0 0 0 0 0 0 0 0 0 127 0"/>
<feOffset dy="4"/>
<feGaussianBlur stdDeviation="2"/>
<feColorMatrix type="matrix" values="0 0 0 0 0 0 0 0 0 0 0 0 0 0 0 0 0 0 0.25 0"/>
<feBlend mode="normal" in2="BackgroundImageFix" result="effect1_dropShadow"/>
<feBlend mode="normal" in="SourceGraphic" in2="effect1_dropShadow" result="shape"/>
</filter>
<filter id="filter3_b" x="290.459" y="527.003" width="838.821" height="49.455" filterUnits="userSpaceOnUse" color-interpolation-filters="sRGB">
<feFlood flood-opacity="0" result="BackgroundImageFix"/>
<feGaussianBlur in="BackgroundImage" stdDeviation="2"/>
<feComposite in2="SourceAlpha" operator="in" result="effect1_backgroundBlur"/>
<feBlend mode="normal" in="SourceGraphic" in2="effect1_backgroundBlur" result="shape"/>
</filter>
<linearGradient id="paint0_linear" x1="658.294" y1="435.681" x2="659.998" y2="294.449" gradientUnits="userSpaceOnUse">
<stop stop-color="#5A4ED2"/>
<stop offset="0.437323" stop-color="#5A4ED2" stop-opacity="0.756906"/>
<stop offset="1" stop-color="#C0BED6"/>
</linearGradient>
<linearGradient id="paint1_linear" x1="762.736" y1="435.681" x2="764.44" y2="281.531" gradientUnits="userSpaceOnUse">
<stop stop-color="#5A4ED2"/>
<stop offset="0.451272" stop-color="#5A4ED2" stop-opacity="0.756906"/>
<stop offset="1" stop-color="#AEAAD4"/>
</linearGradient>
<linearGradient id="paint2_linear" x1="207.27" y1="113.453" x2="207.935" y2="58.4766" gradientUnits="userSpaceOnUse">
<stop stop-color="#5A4ED2"/>
<stop offset="0.437323" stop-color="#5A4ED2" stop-opacity="0.756906"/>
<stop offset="1" stop-color="#C0BED6"/>
</linearGradient>
<linearGradient id="paint3_linear" x1="247.825" y1="113.453" x2="248.49" y2="53.4483" gradientUnits="userSpaceOnUse">
<stop stop-color="#5A4ED2"/>
<stop offset="0.451272" stop-color="#5A4ED2" stop-opacity="0.756906"/>
<stop offset="1" stop-color="#AEAAD4"/>
</linearGradient>
<clipPath id="clip0">
<rect width="1440" height="1024" fill="white"/>
</clipPath>
</defs>
</svg>
