<svg width="95" height="77" viewBox="0 0 95 77" fill="none" xmlns="http://www.w3.org/2000/svg">
<path d="M0.955922 0.0027864H2.52363V0.136615C2.44716 0.213089 2.39618 0.295936 2.37069 0.385155C2.35794 0.474375 2.35157 0.627322 2.35157 0.843997V5.08829H7.01647V0.0027864H8.58418V0.136615C8.50771 0.213089 8.45672 0.295936 8.43123 0.385155C8.41849 0.474375 8.41211 0.627322 8.41211 0.843997V11.9136H6.99735V6.2354H2.35157V11.9136H0.955922V0.0027864ZM1.54859 30.7856H3.90016V21.1308H1.68242V20.0028H7.59002V21.1308H5.23845V30.8047H7.70473V31.9136H1.54859V30.7856ZM1.0324 41.0028H3.80457C4.78598 41.0028 5.56347 41.1366 6.13702 41.4043C6.71057 41.6592 7.20765 42.067 7.62826 42.6279C8.40574 43.673 8.79448 45.1387 8.79448 47.0251C8.71801 48.9497 8.27191 50.4218 7.45619 51.4415C6.64047 52.4484 5.34679 52.9454 3.57515 52.9327H1.0324V41.0028ZM3.51779 51.8812C6.14339 51.8812 7.45619 50.288 7.45619 47.1016C7.44345 45.4829 7.14392 44.2529 6.55762 43.4117C5.97133 42.5578 5.02815 42.1308 3.7281 42.1308H2.29421V51.8812H3.51779ZM1.12799 60.9837H8.43123V62.169H2.3898V66.0883H7.37972V67.3119H2.3898V71.7282H8.37388V72.9136H1.12799V60.9837Z" fill="#7D6DDE"/>
<path d="M13.7844 12.1239C12.8667 12.1239 12.1338 11.7861 11.5858 11.1106C11.0377 10.4223 10.7701 9.40269 10.7828 8.05165L10.8019 3.17645H12.1402V8.05165C12.1402 9.09679 12.3186 9.85516 12.6755 10.3267C13.0451 10.7856 13.5295 11.015 14.1285 11.015C14.7913 11.015 15.3457 10.7601 15.7918 10.2503C16.2507 9.7277 16.4801 8.97571 16.4801 7.99429V3.17645H17.8184V10.5562C17.8184 10.8621 17.8248 11.117 17.8375 11.3209C17.863 11.5121 17.9204 11.7096 18.0096 11.9136H16.6904C16.6012 11.7224 16.5438 11.5248 16.5183 11.3209C16.5056 11.117 16.4992 10.8684 16.4992 10.5753C16.2188 11.0596 15.8364 11.442 15.3521 11.7224C14.8805 11.99 14.3579 12.1239 13.7844 12.1239ZM19.8449 3.17645H21.1068V4.03678C21.3107 3.71814 21.572 3.46322 21.8906 3.27204C22.2093 3.06811 22.5406 2.96614 22.8848 2.96614C23.2671 2.96614 23.5985 3.08723 23.8789 3.32939C24.1721 3.57156 24.3569 3.87746 24.4334 4.24708C24.5991 3.86471 24.8603 3.55882 25.2172 3.32939C25.5741 3.08723 25.9692 2.96614 26.4026 2.96614C26.9761 2.96614 27.4031 3.17645 27.6835 3.59705C27.9766 4.00491 28.1105 4.54023 28.085 5.203V11.9136H26.8232V5.7192C26.8232 4.9927 26.7531 4.52111 26.6129 4.30444C26.4727 4.08776 26.2687 3.97942 26.0011 3.97942C25.7717 3.97942 25.5486 4.08776 25.3319 4.30444C25.1153 4.52111 24.9368 4.80151 24.7966 5.14565C24.6692 5.47703 24.6054 5.80842 24.6054 6.13981V11.9136H23.3245V5.83391C23.3245 5.12016 23.2544 4.64219 23.1142 4.40003C22.9867 4.14512 22.7382 4.01766 22.3686 4.01766C22.1774 4.01766 21.9798 4.10688 21.7759 4.28532C21.5847 4.45101 21.4254 4.69318 21.2979 5.01182C21.1705 5.31771 21.1068 5.67459 21.1068 6.08245V11.9136H19.8449V3.17645ZM33.3426 2.98526C34.5916 2.98526 35.5412 3.31028 36.1912 3.9603C36.854 4.61033 37.1854 5.71283 37.1854 7.26779V11.9136H35.6941V10.5753C35.1588 11.6077 34.1647 12.1239 32.7116 12.1239C31.743 12.1239 30.9846 11.9072 30.4366 11.4739C29.8885 11.0278 29.6145 10.4415 29.6145 9.71495C29.6145 9.10316 29.812 8.56785 30.2071 8.109C30.6022 7.65016 31.1312 7.29966 31.794 7.05749C32.4695 6.80258 33.2087 6.67512 34.0117 6.67512C34.7382 6.67512 35.3946 6.71336 35.9809 6.78983C35.9044 5.80842 35.6431 5.12016 35.197 4.72504C34.7637 4.31718 34.1137 4.11325 33.247 4.11325C32.8136 4.11325 32.393 4.1961 31.9851 4.36179C31.59 4.52748 31.2268 4.76965 30.8954 5.08829L30.2263 4.20884C31.042 3.39312 32.0807 2.98526 33.3426 2.98526ZM32.8455 11.0724C33.7887 11.0724 34.5343 10.7983 35.0823 10.2503C35.6304 9.68946 35.9299 8.88649 35.9809 7.84135C35.4073 7.75213 34.7892 7.70752 34.1264 7.70752C33.1577 7.70752 32.393 7.86684 31.8322 8.18548C31.2714 8.50412 30.991 8.98845 30.991 9.63848C30.991 10.5944 31.6092 11.0724 32.8455 11.0724ZM39.6134 3.17645H40.9517V4.72504C41.2958 4.18972 41.7292 3.76275 42.2517 3.44411C42.7743 3.12546 43.3288 2.96614 43.9151 2.96614C44.6925 2.96614 45.3107 3.26567 45.7695 3.86471C46.2411 4.45101 46.4769 5.36869 46.4769 6.61777V11.9136H45.1386V6.656C45.1386 5.7893 44.9921 5.15839 44.6989 4.76328C44.4058 4.36816 44.017 4.17061 43.5327 4.17061C43.1376 4.17061 42.7361 4.28532 42.3282 4.51474C41.9331 4.74416 41.6017 5.06917 41.3341 5.48978C41.0792 5.89764 40.9517 6.36285 40.9517 6.88542V11.9136H39.6134V3.17645ZM52.9963 12.1048C51.6963 12.1048 50.6575 11.7096 49.88 10.9194C49.1153 10.1292 48.7329 9.01394 48.7329 7.57369C48.7329 6.61777 48.9113 5.79567 49.2682 5.10741C49.6251 4.4064 50.1031 3.87746 50.7021 3.52058C51.3139 3.15096 51.9958 2.96614 52.7478 2.96614C53.8057 2.96614 54.6596 3.31665 55.3096 4.01766C55.9724 4.71867 56.3038 5.75106 56.3038 7.11485C56.3038 7.25505 56.2911 7.46535 56.2656 7.74575H50.0521C50.1031 8.81639 50.4026 9.62573 50.9506 10.1738C51.4987 10.7219 52.1933 10.9959 53.0345 10.9959C53.9522 10.9959 54.7042 10.6709 55.2905 10.0208L56.0553 10.7665C55.316 11.6587 54.2964 12.1048 52.9963 12.1048ZM54.9082 6.67512C54.9082 5.8594 54.6979 5.21575 54.2772 4.74416C53.8694 4.25983 53.3277 4.01766 52.6522 4.01766C52.0149 4.01766 51.4605 4.24071 50.9889 4.6868C50.5173 5.1329 50.2241 5.79567 50.1094 6.67512H54.9082ZM10.9357 23.1764H12.274V24.725C12.6182 24.1897 13.0515 23.7627 13.5741 23.4441C14.0967 23.1255 14.6511 22.9661 15.2374 22.9661C16.0149 22.9661 16.633 23.2657 17.0919 23.8647C17.5635 24.451 17.7993 25.3687 17.7993 26.6178V31.9136H16.461V26.656C16.461 25.7893 16.3144 25.1584 16.0213 24.7633C15.7281 24.3682 15.3394 24.1706 14.855 24.1706C14.4599 24.1706 14.0584 24.2853 13.6506 24.5147C13.2555 24.7442 12.9241 25.0692 12.6564 25.4898C12.4015 25.8976 12.274 26.3629 12.274 26.8854V31.9136H10.9357V23.1764ZM27.607 31.1106C26.7658 31.7351 25.8418 32.0474 24.8349 32.0474C23.8662 32.0474 23.1779 31.7543 22.7701 31.168C22.3749 30.5817 22.1774 29.6257 22.1774 28.3002C22.1774 28.0835 22.1901 27.7075 22.2156 27.1722L22.3877 24.3044H20.4567V23.1764H22.4642L22.598 20.844L24.1275 20.5955L24.3187 20.5763L24.3378 20.6911C24.2486 20.8185 24.1785 20.9268 24.1275 21.0161C24.0892 21.1053 24.0637 21.2455 24.051 21.4367L23.8407 23.1764H26.7467V24.3044H23.7642L23.5922 27.2678C23.5667 27.7776 23.5539 28.1154 23.5539 28.2811C23.5539 29.3007 23.6686 29.9954 23.898 30.365C24.1402 30.7219 24.5226 30.9003 25.0452 30.9003C25.4275 30.9003 25.778 30.8302 26.0967 30.69C26.4153 30.5498 26.7786 30.3267 27.1864 30.0208L27.607 31.1106ZM33.8779 32.1048C32.5778 32.1048 31.5391 31.7096 30.7616 30.9194C29.9968 30.1292 29.6145 29.0139 29.6145 27.5737C29.6145 26.6178 29.7929 25.7957 30.1498 25.1074C30.5067 24.4064 30.9846 23.8775 31.5837 23.5206C32.1955 23.151 32.8773 22.9661 33.6293 22.9661C34.6872 22.9661 35.5412 23.3166 36.1912 24.0177C36.854 24.7187 37.1854 25.7511 37.1854 27.1148C37.1854 27.255 37.1726 27.4654 37.1471 27.7458H30.9336C30.9846 28.8164 31.2841 29.6257 31.8322 30.1738C32.3803 30.7219 33.0749 30.9959 33.9161 30.9959C34.8338 30.9959 35.5858 30.6709 36.1721 30.0208L36.9368 30.7665C36.1976 31.6587 35.1779 32.1048 33.8779 32.1048ZM35.7897 26.6751C35.7897 25.8594 35.5794 25.2157 35.1588 24.7442C34.7509 24.2598 34.2093 24.0177 33.5337 24.0177C32.8965 24.0177 32.342 24.2407 31.8704 24.6868C31.3988 25.1329 31.1057 25.7957 30.991 26.6751H35.7897ZM44.6798 22.9661C45.6102 22.9661 46.3813 23.2848 46.9931 23.9221L46.3813 24.9927L46.3049 25.1648L46.171 25.0883C46.1328 24.9481 46.0882 24.8398 46.0372 24.7633C45.9862 24.6741 45.8779 24.5785 45.7122 24.4765C45.3808 24.2598 45.0048 24.1515 44.5842 24.1515C44.1254 24.1515 43.692 24.2662 43.2841 24.4956C42.8763 24.725 42.5449 25.0755 42.29 25.5471C42.0351 26.006 41.9076 26.5859 41.9076 27.2869V31.9327H40.512V23.1764H41.9459L41.9076 24.7824C42.1498 24.2088 42.5194 23.7627 43.0165 23.4441C43.5263 23.1255 44.0807 22.9661 44.6798 22.9661ZM50.8933 24.2662H49.0006V23.1764H50.8933V22.4499C50.8933 21.3283 51.1801 20.4871 51.7536 19.9263C52.3399 19.3655 53.1238 19.0851 54.1052 19.0851C54.666 19.0851 55.1822 19.1871 55.6538 19.391C56.1381 19.5949 56.5332 19.8944 56.8391 20.2896L56.1126 21.3028L55.9979 21.4558L55.8832 21.3793C55.8832 21.3538 55.8705 21.3028 55.845 21.2264C55.8322 21.1371 55.8004 21.0479 55.7494 20.9587C55.6984 20.8695 55.6219 20.7803 55.5199 20.6911C55.3288 20.5126 55.1312 20.3852 54.9273 20.3087C54.7233 20.2322 54.4621 20.194 54.1434 20.194C53.5444 20.194 53.0728 20.3724 52.7287 20.7293C52.3845 21.0862 52.2125 21.6597 52.2125 22.4499V23.1764H55.0802V24.2662H52.2125V31.9136H50.8933V24.2662ZM62.0202 22.9853C63.2693 22.9853 64.2188 23.3103 64.8689 23.9603C65.5316 24.6103 65.863 25.7128 65.863 27.2678V31.9136H64.3718V30.5753C63.8365 31.6077 62.8423 32.1239 61.3893 32.1239C60.4206 32.1239 59.6623 31.9072 59.1142 31.4739C58.5662 31.0278 58.2921 30.4415 58.2921 29.715C58.2921 29.1032 58.4897 28.5678 58.8848 28.109C59.2799 27.6502 59.8088 27.2997 60.4716 27.0575C61.1471 26.8026 61.8864 26.6751 62.6894 26.6751C63.4159 26.6751 64.0723 26.7134 64.6586 26.7898C64.5821 25.8084 64.3208 25.1202 63.8747 24.725C63.4414 24.3172 62.7913 24.1133 61.9246 24.1133C61.4913 24.1133 61.0707 24.1961 60.6628 24.3618C60.2677 24.5275 59.9044 24.7697 59.5731 25.0883L58.9039 24.2088C59.7196 23.3931 60.7584 22.9853 62.0202 22.9853ZM61.5231 31.0724C62.4663 31.0724 63.2119 30.7983 63.76 30.2503C64.3081 29.6895 64.6076 28.8865 64.6586 27.8413C64.085 27.7521 63.4668 27.7075 62.8041 27.7075C61.8354 27.7075 61.0707 27.8668 60.5099 28.1855C59.9491 28.5041 59.6686 28.9885 59.6686 29.6385C59.6686 30.5944 60.2868 31.0724 61.5231 31.0724ZM72.3633 32.1239C71.5221 32.1239 70.7701 31.9263 70.1073 31.5312C69.4445 31.1361 68.922 30.5944 68.5396 29.9061C68.17 29.2051 67.9852 28.4213 67.9852 27.5546C67.9852 26.6879 68.17 25.9104 68.5396 25.2221C68.922 24.5339 69.4445 23.9922 70.1073 23.5971C70.7701 23.2019 71.5157 23.0044 72.3442 23.0044C73.0452 23.0044 73.6825 23.151 74.256 23.4441C74.8296 23.7245 75.2948 24.1196 75.6517 24.6294L74.7913 25.4707L74.6575 25.6045L74.5619 25.5089C74.5619 25.3942 74.5364 25.2922 74.4854 25.203C74.4472 25.101 74.3516 24.9863 74.1987 24.8589C73.931 24.6167 73.6379 24.4446 73.3192 24.3427C73.0006 24.228 72.6246 24.1706 72.1912 24.1706C71.6941 24.1706 71.2289 24.3108 70.7956 24.5912C70.375 24.8589 70.0372 25.2412 69.7823 25.7383C69.5274 26.2354 69.3999 26.809 69.3999 27.459C69.3999 28.109 69.5274 28.6953 69.7823 29.2179C70.05 29.7404 70.4132 30.1483 70.8721 30.4415C71.3436 30.7346 71.8662 30.8812 72.4398 30.8812C73.3192 30.8812 74.0776 30.5243 74.7149 29.8105L75.5178 30.7473C74.6639 31.665 73.6124 32.1239 72.3633 32.1239ZM81.674 32.1048C80.3739 32.1048 79.3351 31.7096 78.5577 30.9194C77.7929 30.1292 77.4106 29.0139 77.4106 27.5737C77.4106 26.6178 77.589 25.7957 77.9459 25.1074C78.3028 24.4064 78.7807 23.8775 79.3798 23.5206C79.9915 23.151 80.6734 22.9661 81.4254 22.9661C82.4833 22.9661 83.3373 23.3166 83.9873 24.0177C84.6501 24.7187 84.9815 25.7511 84.9815 27.1148C84.9815 27.255 84.9687 27.4654 84.9432 27.7458H78.7297C78.7807 28.8164 79.0802 29.6257 79.6283 30.1738C80.1764 30.7219 80.871 30.9959 81.7122 30.9959C82.6299 30.9959 83.3819 30.6709 83.9682 30.0208L84.7329 30.7665C83.9937 31.6587 82.974 32.1048 81.674 32.1048ZM83.5858 26.6751C83.5858 25.8594 83.3755 25.2157 82.9549 24.7442C82.547 24.2598 82.0054 24.0177 81.3298 24.0177C80.6926 24.0177 80.1381 24.2407 79.6665 24.6868C79.1949 25.1329 78.9018 25.7957 78.7871 26.6751H83.5858ZM14.7594 53.1048C13.4594 53.1048 12.4206 52.7096 11.6431 51.9194C10.8784 51.1292 10.496 50.0139 10.496 48.5737C10.496 47.6178 10.6745 46.7957 11.0313 46.1074C11.3882 45.4064 11.8662 44.8775 12.4652 44.5206C13.077 44.151 13.7589 43.9661 14.5109 43.9661C15.5688 43.9661 16.4227 44.3166 17.0728 45.0177C17.7355 45.7187 18.0669 46.7511 18.0669 48.1148C18.0669 48.255 18.0542 48.4654 18.0287 48.7458H11.8152C11.8662 49.8164 12.1657 50.6257 12.7138 51.1738C13.2618 51.7219 13.9565 51.9959 14.7977 51.9959C15.7154 51.9959 16.4673 51.6709 17.0536 51.0208L17.8184 51.7665C17.0791 52.6587 16.0595 53.1048 14.7594 53.1048ZM16.6713 47.6751C16.6713 46.8594 16.461 46.2157 16.0404 45.7442C15.6325 45.2598 15.0908 45.0177 14.4153 45.0177C13.778 45.0177 13.2236 45.2407 12.752 45.6868C12.2804 46.1329 11.9873 46.7957 11.8726 47.6751H16.6713ZM23.9172 53.1048C22.4387 53.1048 21.2023 52.6459 20.2082 51.7282L20.9729 50.4282L21.0876 50.2561L21.2023 50.3326C21.2023 50.3581 21.2087 50.4154 21.2215 50.5047C21.247 50.5939 21.2852 50.6831 21.3362 50.7723C21.3872 50.8615 21.4573 50.9507 21.5465 51.04C21.8396 51.3331 22.171 51.5625 22.5406 51.7282C22.923 51.8812 23.3946 51.9577 23.9554 51.9577C24.6437 51.9577 25.1854 51.8366 25.5805 51.5944C25.9756 51.3395 26.1731 50.9954 26.1731 50.562C26.1731 50.1924 26.0138 49.8865 25.6952 49.6443C25.3765 49.4022 24.803 49.1472 23.9745 48.8796C21.7823 48.255 20.6862 47.3501 20.6862 46.1648C20.6862 45.4892 20.9602 44.9539 21.5082 44.5588C22.0691 44.1637 22.8657 43.9661 23.898 43.9661C24.6883 43.9661 25.351 44.0809 25.8864 44.3103C26.4344 44.527 26.9315 44.8711 27.3776 45.3427L26.5937 46.2986L26.4599 46.4515L26.3643 46.3559C26.3516 46.2157 26.3197 46.101 26.2687 46.0118C26.2305 45.9226 26.1413 45.8206 26.0011 45.7059C25.7079 45.4765 25.3765 45.3044 25.0069 45.1897C24.65 45.0623 24.2932 44.9985 23.9363 44.9985C23.3882 44.9985 22.9358 45.0941 22.5789 45.2853C22.2347 45.4765 22.0627 45.7442 22.0627 46.0883C22.0627 46.4069 22.2411 46.7001 22.598 46.9677C22.9549 47.2354 23.5985 47.5031 24.529 47.7707C25.6251 48.1021 26.3962 48.4654 26.8423 48.8605C27.3011 49.2428 27.5306 49.7463 27.5306 50.3708C27.5306 51.1611 27.2183 51.8175 26.5937 52.34C25.982 52.8498 25.0898 53.1048 23.9172 53.1048ZM30.5895 51.8047H32.8264V45.2853H30.7042V44.1764H34.2029V51.8047H36.2486V52.9136H30.5895V51.8047ZM33.4381 42.3411C33.1705 42.3411 32.9411 42.2455 32.7499 42.0543C32.5587 41.8631 32.4631 41.6337 32.4631 41.366C32.4631 41.0856 32.5523 40.8498 32.7308 40.6587C32.922 40.4675 33.1577 40.3719 33.4381 40.3719C33.7058 40.3719 33.9352 40.4738 34.1264 40.6778C34.3303 40.869 34.4323 41.0984 34.4323 41.366C34.4323 41.6337 34.3303 41.8631 34.1264 42.0543C33.9352 42.2455 33.7058 42.3411 33.4381 42.3411ZM47.3181 45.075C47.2034 45.0623 47.0377 45.0559 46.8211 45.0559C46.2093 45.0559 45.6994 45.1897 45.2916 45.4574C45.5083 45.8907 45.6166 46.3687 45.6166 46.8913C45.6166 47.4648 45.4891 47.9874 45.2342 48.459C44.9921 48.9178 44.6352 49.2811 44.1636 49.5487C43.7048 49.8164 43.1694 49.9502 42.5576 49.9502C42.0733 49.9502 41.6208 49.861 41.2002 49.6826C40.9708 49.963 40.8561 50.2306 40.8561 50.4855C40.8561 50.7914 41.0473 51.0145 41.4297 51.1547C41.8248 51.2821 42.5258 51.3459 43.5327 51.3459C44.769 51.3459 45.6102 51.537 46.0563 51.9194C46.5152 52.289 46.7446 52.8371 46.7446 53.5636C46.7446 54.3156 46.4387 54.9401 45.8269 55.4372C45.2151 55.947 44.2592 56.2019 42.9591 56.2019C41.7101 56.2019 40.7286 56.0108 40.0149 55.6284C39.3139 55.246 38.9634 54.6852 38.9634 53.946C38.9634 53.4871 39.0908 53.092 39.3457 52.7606C39.6007 52.4292 39.9257 52.168 40.3208 51.9768C39.9002 51.6964 39.6899 51.3076 39.6899 50.8105C39.6899 50.3007 39.9512 49.7654 40.4737 49.2046C40.1551 48.9242 39.9129 48.5864 39.7472 48.1913C39.5815 47.7962 39.4987 47.3629 39.4987 46.8913C39.4987 46.3305 39.6198 45.8206 39.8619 45.3618C40.1169 44.8902 40.4737 44.5206 40.9326 44.2529C41.4042 43.9853 41.9459 43.8514 42.5576 43.8514C43.4881 43.8514 44.2337 44.151 44.7945 44.75C45.1004 44.4696 45.4127 44.2657 45.7313 44.1382C46.0627 43.998 46.4259 43.9279 46.8211 43.9279L47.1461 43.947L47.3181 45.075ZM42.5576 48.8031C43.1057 48.8031 43.5582 48.6183 43.9151 48.2487C44.2847 47.8791 44.4695 47.4266 44.4695 46.8913C44.4695 46.3559 44.2847 45.9035 43.9151 45.5339C43.5582 45.1642 43.1057 44.9794 42.5576 44.9794C42.0096 44.9794 41.5507 45.1642 41.1811 45.5339C40.8242 45.9035 40.6458 46.3559 40.6458 46.8913C40.6458 47.4266 40.8242 47.8791 41.1811 48.2487C41.5507 48.6183 42.0096 48.8031 42.5576 48.8031ZM45.4828 53.7739C45.4828 53.468 45.4254 53.2258 45.3107 53.0474C45.2087 52.8817 44.9984 52.7606 44.6798 52.6842C44.3612 52.5949 43.8832 52.5503 43.2459 52.5503C42.3282 52.5503 41.5954 52.4675 41.0473 52.3018C40.7414 52.5057 40.5247 52.716 40.3973 52.9327C40.2826 53.1494 40.2252 53.4361 40.2252 53.793C40.2252 54.2264 40.4674 54.5641 40.9517 54.8063C41.436 55.0485 42.1115 55.1696 42.9783 55.1696C43.8195 55.1696 44.444 55.0421 44.8519 54.7872C45.2725 54.545 45.4828 54.2073 45.4828 53.7739ZM49.1726 44.1764H50.5109V45.725C50.855 45.1897 51.2884 44.7627 51.811 44.4441C52.3335 44.1255 52.888 43.9661 53.4743 43.9661C54.2518 43.9661 54.8699 44.2657 55.3288 44.8647C55.8004 45.451 56.0361 46.3687 56.0361 47.6178V52.9136H54.6979V47.656C54.6979 46.7893 54.5513 46.1584 54.2581 45.7633C53.965 45.3682 53.5762 45.1706 53.0919 45.1706C52.6968 45.1706 52.2953 45.2853 51.8874 45.5147C51.4923 45.7442 51.1609 46.0692 50.8933 46.4898C50.6384 46.8976 50.5109 47.3629 50.5109 47.8854V52.9136H49.1726V44.1764ZM10.9357 64.1764H12.274V65.725C12.6182 65.1897 13.0515 64.7627 13.5741 64.4441C14.0967 64.1255 14.6511 63.9661 15.2374 63.9661C16.0149 63.9661 16.633 64.2657 17.0919 64.8647C17.5635 65.451 17.7993 66.3687 17.7993 67.6178V72.9136H16.461V67.656C16.461 66.7893 16.3144 66.1584 16.0213 65.7633C15.7281 65.3682 15.3394 65.1706 14.855 65.1706C14.4599 65.1706 14.0584 65.2853 13.6506 65.5147C13.2555 65.7442 12.9241 66.0692 12.6564 66.4898C12.4015 66.8976 12.274 67.3629 12.274 67.8854V72.9136H10.9357V64.1764ZM27.607 72.1106C26.7658 72.7351 25.8418 73.0474 24.8349 73.0474C23.8662 73.0474 23.1779 72.7543 22.7701 72.168C22.3749 71.5817 22.1774 70.6257 22.1774 69.3002C22.1774 69.0835 22.1901 68.7075 22.2156 68.1722L22.3877 65.3044H20.4567V64.1764H22.4642L22.598 61.844L24.1275 61.5955L24.3187 61.5763L24.3378 61.6911C24.2486 61.8185 24.1785 61.9268 24.1275 62.0161C24.0892 62.1053 24.0637 62.2455 24.051 62.4367L23.8407 64.1764H26.7467V65.3044H23.7642L23.5922 68.2678C23.5667 68.7776 23.5539 69.1154 23.5539 69.2811C23.5539 70.3007 23.6686 70.9954 23.898 71.365C24.1402 71.7219 24.5226 71.9003 25.0452 71.9003C25.4275 71.9003 25.778 71.8302 26.0967 71.69C26.4153 71.5498 26.7786 71.3267 27.1864 71.0208L27.607 72.1106ZM33.8779 73.1048C32.5778 73.1048 31.5391 72.7096 30.7616 71.9194C29.9968 71.1292 29.6145 70.0139 29.6145 68.5737C29.6145 67.6178 29.7929 66.7957 30.1498 66.1074C30.5067 65.4064 30.9846 64.8775 31.5837 64.5206C32.1955 64.151 32.8773 63.9661 33.6293 63.9661C34.6872 63.9661 35.5412 64.3166 36.1912 65.0177C36.854 65.7187 37.1854 66.7511 37.1854 68.1148C37.1854 68.255 37.1726 68.4654 37.1471 68.7458H30.9336C30.9846 69.8164 31.2841 70.6257 31.8322 71.1738C32.3803 71.7219 33.0749 71.9959 33.9161 71.9959C34.8338 71.9959 35.5858 71.6709 36.1721 71.0208L36.9368 71.7665C36.1976 72.6587 35.1779 73.1048 33.8779 73.1048ZM35.7897 67.6751C35.7897 66.8594 35.5794 66.2157 35.1588 65.7442C34.7509 65.2598 34.2093 65.0177 33.5337 65.0177C32.8965 65.0177 32.342 65.2407 31.8704 65.6868C31.3988 66.1329 31.1057 66.7957 30.991 67.6751H35.7897ZM44.6798 63.9661C45.6102 63.9661 46.3813 64.2848 46.9931 64.9221L46.3813 65.9927L46.3049 66.1648L46.171 66.0883C46.1328 65.9481 46.0882 65.8398 46.0372 65.7633C45.9862 65.6741 45.8779 65.5785 45.7122 65.4765C45.3808 65.2598 45.0048 65.1515 44.5842 65.1515C44.1254 65.1515 43.692 65.2662 43.2841 65.4956C42.8763 65.725 42.5449 66.0755 42.29 66.5471C42.0351 67.006 41.9076 67.5859 41.9076 68.2869V72.9327H40.512V64.1764H41.9459L41.9076 65.7824C42.1498 65.2088 42.5194 64.7627 43.0165 64.4441C43.5263 64.1255 44.0807 63.9661 44.6798 63.9661ZM48.9432 64.1764H50.3388V65.8971C50.53 65.2598 50.8614 64.7819 51.333 64.4632C51.8046 64.1446 52.359 63.9853 52.9963 63.9853C53.6591 63.9853 54.2645 64.1573 54.8126 64.5015C55.3734 64.8328 55.8195 65.3363 56.1509 66.0118C56.4822 66.6873 56.6479 67.5094 56.6479 68.4781C56.6479 69.4595 56.4759 70.3071 56.1317 71.0208C55.7876 71.7219 55.3288 72.2508 54.7552 72.6077C54.1944 72.9646 53.5954 73.143 52.9581 73.143C52.4355 73.143 51.9448 73.0219 51.486 72.7797C51.0271 72.5376 50.6511 72.1998 50.358 71.7665V76.1064H48.9432V64.1764ZM52.7287 71.9194C53.4297 71.9194 54.016 71.6581 54.4876 71.1356C54.9719 70.6002 55.2141 69.7335 55.2141 68.5355C55.2141 67.4521 55.0037 66.6236 54.5831 66.0501C54.1625 65.4638 53.5635 65.1706 52.786 65.1706C52.0595 65.1706 51.4668 65.4765 51.008 66.0883C50.5619 66.6873 50.3388 67.605 50.3388 68.8413C50.3643 69.8483 50.5874 70.613 51.008 71.1356C51.4286 71.6581 52.0022 71.9194 52.7287 71.9194ZM63.7982 63.9661C64.7287 63.9661 65.4998 64.2848 66.1116 64.9221L65.4998 65.9927L65.4233 66.1648L65.2895 66.0883C65.2512 65.9481 65.2066 65.8398 65.1556 65.7633C65.1047 65.6741 64.9963 65.5785 64.8306 65.4765C64.4992 65.2598 64.1232 65.1515 63.7026 65.1515C63.2438 65.1515 62.8104 65.2662 62.4026 65.4956C61.9947 65.725 61.6633 66.0755 61.4084 66.5471C61.1535 67.006 61.0261 67.5859 61.0261 68.2869V72.9327H59.6304V64.1764H61.0643L61.0261 65.7824C61.2682 65.2088 61.6378 64.7627 62.1349 64.4441C62.6448 64.1255 63.1992 63.9661 63.7982 63.9661ZM68.8264 71.8047H71.0632V65.2853H68.9411V64.1764H72.4398V71.8047H74.4854V72.9136H68.8264V71.8047ZM71.675 62.3411C71.4074 62.3411 71.1779 62.2455 70.9868 62.0543C70.7956 61.8631 70.7 61.6337 70.7 61.366C70.7 61.0856 70.7892 60.8498 70.9676 60.6587C71.1588 60.4675 71.3946 60.3719 71.675 60.3719C71.9427 60.3719 72.1721 60.4738 72.3633 60.6778C72.5672 60.869 72.6692 61.0984 72.6692 61.366C72.6692 61.6337 72.5672 61.8631 72.3633 62.0543C72.1721 62.2455 71.9427 62.3411 71.675 62.3411ZM81.2725 73.1048C79.794 73.1048 78.5577 72.6459 77.5635 71.7282L78.3282 70.4282L78.443 70.2561L78.5577 70.3326C78.5577 70.3581 78.564 70.4154 78.5768 70.5047C78.6023 70.5939 78.6405 70.6831 78.6915 70.7723C78.7425 70.8615 78.8126 70.9507 78.9018 71.04C79.1949 71.3331 79.5263 71.5625 79.896 71.7282C80.2783 71.8812 80.7499 71.9577 81.3107 71.9577C81.999 71.9577 82.5407 71.8366 82.9358 71.5944C83.3309 71.3395 83.5285 70.9954 83.5285 70.562C83.5285 70.1924 83.3691 69.8865 83.0505 69.6443C82.7319 69.4022 82.1583 69.1472 81.3298 68.8796C79.1376 68.255 78.0415 67.3501 78.0415 66.1648C78.0415 65.4892 78.3155 64.9539 78.8636 64.5588C79.4244 64.1637 80.221 63.9661 81.2534 63.9661C82.0436 63.9661 82.7064 64.0809 83.2417 64.3103C83.7897 64.527 84.2868 64.8711 84.7329 65.3427L83.9491 66.2986L83.8152 66.4515L83.7196 66.3559C83.7069 66.2157 83.675 66.101 83.6241 66.0118C83.5858 65.9226 83.4966 65.8206 83.3564 65.7059C83.0632 65.4765 82.7319 65.3044 82.3622 65.1897C82.0054 65.0623 81.6485 64.9985 81.2916 64.9985C80.7435 64.9985 80.2911 65.0941 79.9342 65.2853C79.5901 65.4765 79.418 65.7442 79.418 66.0883C79.418 66.4069 79.5964 66.7001 79.9533 66.9677C80.3102 67.2354 80.9538 67.5031 81.8843 67.7707C82.9804 68.1021 83.7515 68.4654 84.1976 68.8605C84.6564 69.2428 84.8859 69.7463 84.8859 70.3708C84.8859 71.1611 84.5736 71.8175 83.9491 72.34C83.3373 72.8498 82.4451 73.1048 81.2725 73.1048ZM91.2332 73.1048C89.9331 73.1048 88.8944 72.7096 88.1169 71.9194C87.3521 71.1292 86.9698 70.0139 86.9698 68.5737C86.9698 67.6178 87.1482 66.7957 87.5051 66.1074C87.862 65.4064 88.3399 64.8775 88.939 64.5206C89.5508 64.151 90.2327 63.9661 90.9846 63.9661C92.0425 63.9661 92.8965 64.3166 93.5465 65.0177C94.2093 65.7187 94.5407 66.7511 94.5407 68.1148C94.5407 68.255 94.5279 68.4654 94.5024 68.7458H88.289C88.3399 69.8164 88.6395 70.6257 89.1875 71.1738C89.7356 71.7219 90.4302 71.9959 91.2714 71.9959C92.1891 71.9959 92.9411 71.6709 93.5274 71.0208L94.2921 71.7665C93.5529 72.6587 92.5332 73.1048 91.2332 73.1048ZM93.145 67.6751C93.145 66.8594 92.9347 66.2157 92.5141 65.7442C92.1063 65.2598 91.5646 65.0177 90.8891 65.0177C90.2518 65.0177 89.6973 65.2407 89.2258 65.6868C88.7542 66.1329 88.461 66.7957 88.3463 67.6751H93.145Z" fill="#69657F"/>
</svg>
